<svg width="105" height="167" viewBox="0 0 105 167" fill="none" xmlns="http://www.w3.org/2000/svg">
<path d="M86.0467 66.9235C88.3759 66.2843 90.3354 66.0379 92.6646 65.3987C94.6167 68.7335 96.232 70.3897 95.7641 74.2278C95.7582 74.2756 94.9609 76.6561 94.9311 76.6935C94.8834 76.7532 94.797 76.7607 94.721 76.7622C91.3845 76.8518 88.0346 76.4366 84.8203 75.5331L86.0452 66.925L86.0467 66.9235Z" fill="#043E66"/>
<path d="M48.5186 7.62483C49.7256 7.03045 50.9312 6.43457 52.1382 5.84018C53.691 5.07406 55.5015 4.28702 57.0588 4.84556C58.683 5.42949 59.3298 7.25595 60.8632 7.99968C61.7498 8.42979 62.936 8.51043 63.4754 9.28104C63.9493 9.95756 63.7094 10.8865 63.4054 11.6884C62.8168 13.2356 62.0359 14.7335 61.0837 16.1404C58.7799 11.9453 54.3839 8.84944 49.2965 7.84287L48.5156 7.62483H48.5186Z" fill="#F59F18"/>
<path d="M43.1609 20.179C37.081 15.7898 37.832 11.9039 38.893 10.4135C40.7289 7.83134 44.4871 7.05476 47.7372 7.14884C52.7814 7.2952 57.6423 8.96186 61.3931 11.8307C62.3289 12.5461 67.1511 17.231 66.628 21.4245C66.3658 23.5332 64.0277 22.5326 62.5852 24.2919C61.1427 26.0526 57.772 26.9188 55.5159 26.5335C58.8047 24.2068 57.1208 23.0568 58.523 18.1479C59.5199 14.6593 55.419 14.2501 51.856 12.7761C49.6714 11.8726 48.5627 10.8914 46.4959 12.2519C44.5706 13.5198 45.4363 13.0434 45.0578 15.1342C44.5929 17.7014 43.1087 19.4039 43.7659 21.8636L43.1624 20.179H43.1609Z" fill="#B77115"/>
<path d="M62.1129 23.8796C63.6552 21.8246 65.196 19.7697 66.7384 17.7147C67.0021 17.3623 67.2733 17.0039 67.6369 16.7589C68.7397 16.0122 70.2343 16.5334 71.4011 17.1741C75.7077 19.5397 79.1977 23.3673 81.1587 27.8775C81.804 29.3605 82.3091 30.948 83.3671 32.1696C85.0943 34.1663 88.0806 34.9295 89.3621 37.2383C90.131 38.6242 90.1176 40.3148 89.8598 41.8799C89.6005 43.445 89.1177 44.9757 89.0104 46.5588C88.9031 48.1418 89.2384 49.8548 90.3724 50.9614C91.5065 52.068 93.5763 52.2607 94.6075 51.0555C93.5167 54.0334 90.8851 56.3945 87.8123 57.1516C85.9556 57.6101 83.7769 57.419 82.4477 56.042C81.8144 55.3849 81.4374 54.5292 80.9784 53.7392C80.4494 52.8282 79.7967 51.9874 79.0457 51.2481C78.3796 50.594 77.6032 50.0026 76.6927 49.804C75.5274 49.5501 74.3367 49.9698 73.1625 50.1773C70.8482 50.5865 68.3671 50.134 66.4269 48.8049C64.4867 47.4772 63.1426 45.2595 63.004 42.9088C62.9682 42.295 63.004 41.6484 62.7209 41.1033C62.2619 40.2162 61.1651 39.9309 60.2904 39.4486C58.9686 38.7213 58.0164 37.3548 57.7884 35.8599C57.5604 34.3649 58.0641 32.7774 59.1102 31.6872C59.8344 30.933 60.7747 30.4283 61.5764 29.7592C62.3781 29.0902 63.0755 28.1448 63.0114 27.1009C62.9623 26.3049 62.4824 25.606 62.2589 24.8414C62.0354 24.0767 62.2127 23.0448 62.9742 22.8118L62.1114 23.8811L62.1129 23.8796Z" fill="#0C0C0C"/>
<path d="M54.6608 29.6013C54.1199 29.9851 54.0409 30.7647 54.1586 31.4188C54.2808 32.1058 54.6623 32.848 55.3448 32.9869C54.9112 33.2632 54.4656 33.5455 53.9619 33.6545C53.1811 33.8232 52.3168 33.5186 51.8131 32.8958C51.3109 32.2731 51.1917 31.3621 51.5195 30.6318L54.6593 29.6028L54.6608 29.6013Z" fill="black"/>
<path d="M77.4693 139.087C77.6913 140.9 77.9118 142.715 78.1339 144.528C78.274 145.67 78.42 146.835 78.9147 147.874C79.2411 148.56 79.712 149.174 79.9966 149.877C80.2812 150.582 80.3453 151.448 79.8863 152.052C79.0548 153.142 77.3694 152.635 76 152.647C73.6231 152.668 71.3253 154.587 69.0781 153.817C69.324 152.201 70.9662 151.19 71.6442 149.704C72.1926 148.502 72.06 147.113 71.8945 145.802C71.4564 142.353 70.8589 138.924 70.1034 135.531L77.4708 139.086L77.4693 139.087Z" fill="#A35F31"/>
<path d="M71.1949 149.813C71.7448 151.751 72.7402 152.306 74.7237 152.649C76.3107 152.924 79.0139 152.083 80.5621 151.639C80.8214 152.377 80.2596 155.171 80.2596 155.171C80.2596 155.171 76.3554 156.069 75.8964 155.903C75.3927 155.721 74.4092 154.377 74.2051 154.623C72.7805 156.342 70.4543 156.993 68.2504 157.323C65.8229 157.686 63.3552 157.77 60.9098 157.573C60.6684 157.553 60.4478 157.409 60.354 157.186C60.2154 156.856 60.4508 156.625 60.6684 156.436C61.9827 155.304 63.5578 154.577 65.1925 153.96C67.4993 153.09 69.5543 151.657 71.1949 149.813Z" fill="#685434"/>
<path d="M90.1719 136.254C91.3089 141.676 94.5008 144.829 97.4901 158.003C99.2366 158.128 101.011 157.846 102.633 157.184C102.917 157.068 103.221 156.917 103.338 156.632C103.428 156.409 103.382 156.155 103.332 155.921C101.837 148.932 98.6986 140.827 97.2189 133.833L90.1719 136.254Z" fill="#A35F31"/>
<path d="M96.439 155.862C98.3702 154.503 100.793 153.861 103.142 154.088C103.426 155.293 103.713 156.497 103.997 157.702C104.237 158.719 104.48 159.757 104.388 160.797C104.242 162.434 103.283 163.887 102.196 165.116C101.832 165.526 101.422 165.939 100.892 166.079C100.188 166.264 99.4536 165.924 98.859 165.501C97.9947 164.887 96.819 162.486 96.8696 161.425C97.0619 157.46 96.4375 155.861 96.4375 155.861L96.439 155.862Z" fill="#685434"/>
<path d="M61.0567 77.8685C59.7498 81.1376 58.279 84.7442 58.1344 89.5337C58.0376 92.7595 58.7022 95.9539 59.3653 99.1125C62.0193 111.775 64.6733 124.44 67.3273 137.102C67.4212 137.549 67.5225 138.013 67.8086 138.367C68.1052 138.735 68.5582 138.93 68.9933 139.112C71.5862 140.203 74.4935 141.305 77.1281 140.319C77.4426 140.201 77.763 140.04 77.9358 139.753C78.1161 139.454 78.1012 139.081 78.0804 138.733C77.5007 128.966 76.9195 119.199 76.3398 109.432C78.9551 115.69 81.5703 121.945 84.1856 128.203C85.6296 131.656 87.078 135.124 88.0243 138.745C88.2061 139.442 88.3804 140.167 88.8066 140.748C89.1523 141.22 89.6456 141.566 90.1656 141.835C93.5021 143.561 98.1589 141.73 99.433 138.19C96.4124 130.043 95.4438 121.075 91.0687 113.572C90.5292 112.647 89.9317 111.727 89.6992 110.681C89.5278 109.91 89.5666 109.111 89.586 108.322C89.8348 98.6047 87.3388 89.0513 84.8606 79.6546C84.7384 79.1932 84.6118 78.7212 84.3316 78.3359C83.9382 77.7968 83.2989 77.5026 82.6894 77.2323C79.198 75.6851 75.641 74.1185 71.8485 73.6824C68.056 73.2463 63.9238 74.1066 61.2429 76.8291L61.0582 77.8655L61.0567 77.8685Z" fill="#F6821E"/>
<path d="M84.2761 84.8059C85.1121 88.4767 85.7037 92.1983 86.1851 95.9319C86.6634 99.6371 87.0374 103.354 87.4532 107.067C87.8496 110.618 88.2847 114.168 88.8808 117.691C89.4619 121.123 90.1951 124.536 91.189 127.873C92.1681 131.162 93.4005 134.38 94.9726 137.431C95.1708 137.817 95.3749 138.199 95.585 138.58C95.7087 138.804 96.0515 138.604 95.9278 138.38C94.2588 135.345 92.9415 132.13 91.8984 128.828C90.8597 125.539 90.0863 122.173 89.4739 118.78C88.839 115.258 88.3801 111.71 87.9747 108.156C87.5501 104.444 87.1805 100.726 86.7215 97.0176C86.267 93.3498 85.7276 89.6909 84.9631 86.0738C84.8663 85.6153 84.7649 85.1583 84.6621 84.7013C84.6055 84.4519 84.2225 84.558 84.2791 84.8074L84.2761 84.8059Z" fill="#8C4B2A"/>
<path d="M89.5823 139.676C92.1096 139.759 94.6474 139.175 96.8931 138.009C97.5294 137.677 98.1403 137.3 98.7215 136.877C98.9272 136.728 98.729 136.383 98.5218 136.533C96.5161 137.99 94.1363 138.918 91.6745 139.196C90.9801 139.274 90.2812 139.301 89.5823 139.277C89.326 139.268 89.3275 139.667 89.5823 139.674V139.676Z" fill="#8C4B2A"/>
<path d="M67.74 136.367C69.9663 137.553 72.5458 137.985 75.0389 137.628C75.7392 137.528 76.4292 137.362 77.0998 137.133C77.3412 137.051 77.2368 136.667 76.994 136.75C74.6931 137.532 72.1643 137.55 69.8471 136.823C69.187 136.615 68.5507 136.348 67.9397 136.022C67.7147 135.903 67.5135 136.245 67.74 136.366V136.367Z" fill="#8C4B2A"/>
<path d="M62.2244 156.82C64.8903 156.768 67.5503 156.455 70.1551 155.888C70.9002 155.725 71.6408 155.541 72.3754 155.338C72.6213 155.27 72.517 154.886 72.2696 154.954C69.7229 155.659 67.1107 156.119 64.4761 156.316C63.7265 156.373 62.974 156.408 62.2229 156.423C61.9681 156.427 61.9666 156.826 62.2229 156.82H62.2244Z" fill="#C2B38C"/>
<path d="M76.2495 155.386C77.4833 155.182 78.7172 154.976 79.951 154.771C80.2029 154.729 80.0956 154.345 79.8452 154.387C78.6114 154.592 77.3775 154.798 76.1437 155.003C75.8918 155.044 75.9991 155.428 76.2495 155.386Z" fill="#C2B38C"/>
<path d="M97.5627 161.914C98.0529 162.921 98.6237 163.994 99.7428 164.393C100.246 164.572 100.804 164.56 101.281 164.309C101.756 164.059 102.097 163.619 102.412 163.197C102.868 162.583 103.319 161.968 103.772 161.354C103.924 161.148 103.58 160.949 103.429 161.154C103.069 161.642 102.708 162.132 102.346 162.62C102.045 163.027 101.756 163.47 101.357 163.788C100.509 164.462 99.4328 163.99 98.8084 163.251C98.424 162.797 98.1632 162.247 97.9039 161.715C97.7921 161.485 97.4494 161.687 97.5612 161.915L97.5627 161.914Z" fill="#C2B38C"/>
<path d="M75.2421 146.046C74.6058 146.741 74.6177 147.894 75.2763 148.569C75.4552 148.753 75.7353 148.47 75.5565 148.288C75.0528 147.771 75.0319 146.862 75.5222 146.329C75.6951 146.141 75.4149 145.858 75.2421 146.048V146.046Z" fill="#89563D"/>
<path d="M100.565 149.278C100.621 149.303 100.675 149.332 100.729 149.363C100.756 149.379 100.782 149.397 100.809 149.417C100.812 149.42 100.851 149.448 100.832 149.433C100.812 149.418 100.849 149.448 100.852 149.451C100.9 149.49 100.945 149.533 100.987 149.578C101.006 149.599 101.025 149.621 101.045 149.644C101.054 149.656 101.064 149.666 101.073 149.678C101.048 149.645 101.082 149.692 101.083 149.695C101.118 149.742 101.149 149.792 101.177 149.844C101.192 149.872 101.207 149.901 101.22 149.93C101.226 149.945 101.237 149.966 101.225 149.939C101.231 149.953 101.235 149.966 101.241 149.98C101.264 150.038 101.282 150.096 101.295 150.156C101.302 150.184 101.307 150.213 101.313 150.243C101.313 150.249 101.32 150.305 101.316 150.259C101.316 150.277 101.319 150.293 101.32 150.311C101.329 150.414 101.405 150.516 101.519 150.51C101.618 150.505 101.726 150.422 101.717 150.311C101.669 149.726 101.305 149.176 100.765 148.934C100.669 148.893 100.547 148.903 100.493 149.006C100.447 149.093 100.463 149.233 100.565 149.278Z" fill="#89563D"/>
<path d="M27.0615 152.728C27.2329 153.581 26.8008 154.456 26.1972 155.08C25.5937 155.704 24.8293 156.142 24.1304 156.657C22.8622 157.591 21.7938 158.794 21.0189 160.165C20.5912 160.921 20.2455 161.82 20.5197 162.644C20.9504 163.939 22.5687 164.305 23.9218 164.466C24.8084 164.571 25.6951 164.677 26.5817 164.782C27.9497 164.943 29.5158 165.044 30.5158 164.095C31.1163 163.524 31.383 162.674 31.9538 162.075C32.982 160.996 34.6584 160.997 36.1337 160.79C36.6225 160.721 37.1455 160.6 37.4689 160.227C37.9472 159.672 37.7893 158.832 37.603 158.122C37.0293 155.931 36.4541 153.742 35.8804 151.551C35.8506 151.435 35.8163 151.312 35.7313 151.227C35.6151 151.109 35.4348 151.088 35.2694 151.076C32.7152 150.887 30.1462 150.903 27.5935 151.127L27.063 152.73L27.0615 152.728Z" fill="#6DA8C6"/>
<path d="M41.7846 152.933C41.4597 154.329 41.1349 155.727 40.8115 157.125C40.7355 157.453 40.661 157.807 40.7847 158.119C40.971 158.587 41.5104 158.778 41.9619 158.994C42.9618 159.475 43.777 160.332 44.2076 161.357C44.4654 161.972 44.598 162.655 45.0019 163.186C45.7082 164.111 47.0136 164.296 48.1759 164.277C49.2995 164.259 50.4186 164.118 51.5184 163.893C52.8193 163.625 54.3482 162.937 54.4257 161.609C54.4987 160.344 53.2142 159.504 52.3588 158.57C50.3784 156.411 50.5036 153.118 49.6095 150.325C49.535 150.091 49.4471 149.852 49.2742 149.677C49.0462 149.445 48.7094 149.365 48.392 149.295C46.881 148.961 45.3699 148.628 43.8574 148.294L41.7831 152.933H41.7846Z" fill="#6DA8C6"/>
<path d="M19.6572 83.4077C20.2041 90.6538 18.7408 92.5759 17.7364 99.7742C17.4548 101.796 19.0582 109.196 18.8958 111.232C18.6424 114.38 18.9703 117.544 19.2951 120.687C19.6215 123.836 19.9493 126.986 20.2756 130.136C20.5603 132.88 20.8464 135.63 21.3769 138.337C22.4841 143.986 24.6627 141.969 24.5092 147.724C24.4794 148.851 24.3691 150.035 24.8549 151.052C25.6134 152.643 27.5164 153.257 29.2152 153.709C31.1747 154.232 33.3444 154.735 35.1565 153.824C37.8015 152.494 38.2829 148.953 38.1845 145.988C38.0742 142.691 36.3382 141.024 36.3263 139.646C36.3128 138.167 36.6794 136.716 36.8597 135.248C37.0892 133.373 37.0132 131.477 36.973 129.589C36.8225 122.482 35.6676 108.924 36.5602 101.871C39.1933 107.846 39.5182 121.144 39.4556 127.674C39.3751 136.006 41.2408 136.816 40.1769 145.079C39.9042 147.193 39.4422 149.344 39.8565 151.436C39.9548 151.935 40.1158 152.444 40.4749 152.803C40.7223 153.049 41.0426 153.205 41.363 153.342C44.6086 154.735 48.4235 154.734 51.6675 153.337C52.0729 153.163 52.4782 152.963 52.7837 152.644C53.5809 151.82 53.487 150.515 53.4319 149.368C53.0773 142.078 56.3646 142.55 56.2066 135.254C56.1813 134.057 56.0621 132.854 56.2304 131.669C56.4674 130.003 57.2587 128.472 57.7459 126.859C59.9752 119.483 55.694 111.711 55.9458 104.008C56.0129 101.961 56.4018 99.9399 56.6075 97.9014C57.0977 93.0418 55.9414 87.4609 55.384 82.6087C49.6275 83.802 44.1452 84.0842 38.5958 82.1383C37.119 81.6216 35.6661 80.9928 34.1208 80.7509C32.8452 80.5508 31.5458 80.618 30.2568 80.5448C29.0811 80.4776 27.9083 80.2924 26.7326 80.3581C24.5927 80.4776 22.5139 81.4677 21.0699 83.0553L19.6528 83.4077H19.6572Z" fill="#043E66"/>
<path d="M37.2723 158.564C35.2293 158.778 32.9821 159.048 31.2922 160.327C30.8765 160.64 30.5129 161.006 30.2044 161.427C29.8602 161.898 29.586 162.441 29.1106 162.798C28.221 163.467 26.9886 163.406 25.944 163.278C24.43 163.091 22.9384 162.719 21.5063 162.192C21.2664 162.104 21.1621 162.488 21.4005 162.576C22.6835 163.048 24.0113 163.393 25.3643 163.596C26.4745 163.763 27.6905 163.905 28.756 163.452C29.285 163.228 29.6858 162.859 30.0196 162.396C30.349 161.939 30.6321 161.463 31.0374 161.066C31.778 160.338 32.7347 159.884 33.7182 159.587C34.8731 159.238 36.0772 159.085 37.2738 158.962C37.5256 158.935 37.5286 158.537 37.2738 158.564H37.2723Z" fill="white"/>
<path d="M22.3966 159.326C23.9583 160.353 25.1922 161.863 25.8851 163.601C25.979 163.836 26.3634 163.734 26.2681 163.495C25.5349 161.654 24.2504 160.071 22.5963 158.981C22.3817 158.84 22.1835 159.184 22.3951 159.324L22.3966 159.326Z" fill="white"/>
<path d="M28.6923 158.471C27.7132 157.66 26.6835 156.911 25.6061 156.233C25.3886 156.097 25.1889 156.441 25.4065 156.577C26.454 157.235 27.4584 157.961 28.4121 158.751C28.6073 158.914 28.8905 158.633 28.6923 158.471Z" fill="white"/>
<path d="M29.8472 158.24C28.9293 157.262 27.8266 156.466 26.6076 155.908C26.3766 155.802 26.1754 156.145 26.4079 156.251C27.5986 156.798 28.67 157.567 29.5671 158.523C29.7429 158.709 30.0231 158.427 29.8472 158.242V158.24Z" fill="white"/>
<path d="M54.1048 160.167C52.2063 159.837 50.211 160.252 48.5941 161.302C48.1351 161.6 47.7075 161.95 47.323 162.341C47.1442 162.523 47.4243 162.806 47.6032 162.622C48.8787 161.321 50.6491 160.543 52.4656 160.456C52.9782 160.433 53.4923 160.461 53.999 160.549C54.2493 160.592 54.3566 160.209 54.1048 160.165V160.167Z" fill="white"/>
<path d="M54.1614 162.066C53.0661 162.238 51.9724 162.423 50.8756 162.577C49.98 162.704 49.0635 162.788 48.1605 162.685C47.2783 162.585 46.4245 162.26 45.7822 161.633C45.1161 160.984 44.7003 160.135 44.1788 159.375C43.5559 158.469 42.7601 157.699 41.8318 157.111C41.6157 156.974 41.416 157.319 41.6321 157.455C42.477 157.991 43.2161 158.69 43.7898 159.511C44.3337 160.288 44.7584 161.157 45.426 161.841C46.7702 163.219 48.7789 163.24 50.5627 163.018C51.801 162.862 53.0334 162.644 54.2657 162.45C54.5176 162.411 54.4103 162.027 54.1599 162.066H54.1614Z" fill="white"/>
<path d="M51.6651 157.29C50.321 157.087 48.9381 157.367 47.7877 158.098C47.5731 158.236 47.7713 158.579 47.9873 158.442C49.0409 157.771 50.321 157.486 51.5578 157.674C51.8081 157.712 51.9154 157.329 51.6636 157.29H51.6651Z" fill="white"/>
<path d="M50.8329 156.427C49.6721 156.293 48.4874 156.456 47.4055 156.898C47.1716 156.993 47.2744 157.378 47.5113 157.281C48.5649 156.85 49.7019 156.694 50.8329 156.824C51.0862 156.854 51.0848 156.456 50.8329 156.427Z" fill="white"/>
<path d="M90.9572 71.3272C93.0956 72.9371 96.9462 74.9846 99.4124 73.9497C105.607 71.3496 93.7215 47.9431 93.7692 47.2337C93.8064 46.6812 93.9405 46.1391 94.0136 45.5895C94.3026 43.3912 93.5769 41.2003 92.8617 39.102C92.6799 38.5674 92.4474 37.976 91.9303 37.7505C91.4147 37.525 90.6562 38.0626 90.9289 38.5569C90.6145 38.206 90.4997 37.7191 90.2241 37.3368C89.9067 36.8977 89.1571 36.6424 88.8948 37.2502C88.8546 37.3443 88.8352 37.4458 88.8278 37.5474C88.7816 38.2941 88.865 39.0498 89.0722 39.7696C88.4999 37.8655 88.0842 34.7069 86.8876 33.1209C86.6342 32.7848 86.1008 32.9536 86.0799 33.3747C85.9711 35.5133 87.4807 40.9957 87.4807 40.9957C86.7162 39.5306 84.6478 36.1749 83.6226 34.6845C83.3618 34.3051 82.7732 34.5082 82.8 34.9682C82.9341 37.2323 85.0651 40.597 84.5704 42.6026C84.3856 43.3523 84.3126 44.5754 84.4869 45.3281C84.7581 46.502 86.3809 46.6184 87.3153 47.3771C87.8964 47.849 88.1974 48.5748 88.4761 49.2693C89.9186 52.8684 90.5608 56.8335 92.0033 60.4326C86.5582 53.8795 84.3439 48.6017 78.6425 44.4799C77.5487 43.6883 76.2329 42.964 74.9141 43.2508L78.2982 56.9888C78.2982 56.9888 88.4269 69.4216 90.9542 71.3257L90.9572 71.3272Z" fill="#A35F31"/>
<path d="M90.0502 55.5448C90.01 55.1984 89.7537 54.9221 89.5212 54.6607C87.0833 51.9188 86.0864 48.1106 83.5978 45.4134C81.8528 43.5213 79.4119 42.2922 76.8593 42.001C74.8118 41.4394 72.5467 41.4439 70.4217 41.7321C66.9348 42.2056 63.5312 43.3271 60.0144 43.4242C59.4332 43.4406 58.8267 43.4332 58.3037 43.687C57.6793 43.9887 57.2799 44.6085 56.9357 45.2118C54.1744 50.061 53.0523 55.8286 53.793 61.3617C54.006 62.9582 54.3756 64.5487 55.0611 66.0048C55.8568 67.6939 57.0594 69.1664 57.8283 70.8674C59.4019 74.3546 58.6285 77.667 59.773 81.3184C59.8579 81.5887 59.9548 81.865 60.1441 82.0756C60.3706 82.3309 60.7014 82.4624 61.0233 82.5774C65.8156 84.3008 71.59 85.0161 76.3541 83.2151C79.2465 82.1219 81.8677 80.4238 84.4621 78.7393C82.6843 73.2629 81.1763 67.6998 79.9395 62.0756C80.5027 63.2405 80.9945 64.4382 81.4132 65.6628C85.1789 63.6183 88.2173 60.2596 89.8819 56.3035C89.9832 56.0616 90.083 55.8047 90.0517 55.5433L90.0502 55.5448Z" fill="#02A5E5"/>
<mask id="mask0_14497_83686" style="mask-type:luminance" maskUnits="userSpaceOnUse" x="53" y="41" width="38" height="44">
<path d="M90.0581 55.5455C90.0178 55.199 89.7615 54.9227 89.5291 54.6614C87.0911 51.9194 86.0942 48.1112 83.6056 45.4141C81.8606 43.5219 72.5545 41.4445 70.4296 41.7328C66.9426 42.2062 63.539 43.3277 60.0222 43.4248C59.4411 43.4412 58.8346 43.4338 58.3115 43.6877C57.6871 43.9893 57.2878 44.6091 56.9435 45.2124C54.1822 50.0616 53.0602 55.8292 53.8008 61.3624C54.0139 62.9588 54.3834 64.5493 55.0689 66.0054C55.8646 67.6945 57.0672 69.167 57.8361 70.868C59.4098 74.3552 58.6364 77.6676 59.7808 81.319C59.8657 81.5893 59.9626 81.8656 60.1519 82.0762C60.3784 82.3316 60.7092 82.463 61.0311 82.578C65.8234 84.3014 71.5979 85.0168 76.3619 83.2157C79.2543 82.1225 81.8755 80.4245 84.4699 78.7399C82.6922 73.2635 81.1841 67.7005 79.9473 62.0762C80.5106 63.2411 81.0023 64.4388 81.421 65.6634C85.1867 63.6189 88.2252 60.2602 89.8897 56.3041C89.991 56.0622 90.0908 55.8053 90.0596 55.544L90.0581 55.5455Z" fill="white"/>
</mask>
<g mask="url(#mask0_14497_83686)">
<g opacity="0.38">
<path d="M48.372 46.5003C53.5787 46.7527 58.7928 46.8498 64.0054 46.7915C71.9107 46.7019 80.1543 46.1568 86.9942 42.1843C87.3861 43.5852 87.778 44.9845 88.1685 46.3853C74.6348 50.0129 60.4603 51.2255 46.5078 49.9531L48.3705 46.5018L48.372 46.5003Z" fill="white"/>
</g>
<g opacity="0.38">
<path d="M44.5859 55.8866C61.182 54.432 77.69 51.9693 93.9895 48.5195C94.295 50.4475 94.599 52.3756 94.9045 54.3036C78.9492 57.6966 62.8152 61.1061 46.5097 60.6984L44.5859 55.8881V55.8866Z" fill="white"/>
</g>
<g opacity="0.38">
<path d="M50.7611 66.2552C64.3276 64.3286 77.9552 62.8307 91.6156 61.7629C91.9658 63.6372 92.316 65.5114 92.6662 67.3872C77.7868 69.935 62.672 71.0969 47.5781 70.8534L50.7596 66.2552H50.7611Z" fill="white"/>
</g>
<g opacity="0.38">
<path d="M50.4806 77.148C63.1158 75.5934 75.8239 74.6331 88.5485 74.2732C89.0656 75.1125 88.5112 76.2744 87.6618 76.7717C86.8124 77.269 85.7798 77.2929 84.7977 77.3422C75.1936 77.8201 66.1647 81.6283 57.3458 80.8891C54.2508 80.6292 51.0916 79.8526 48.0859 80.6412L50.4806 77.1495V77.148Z" fill="white"/>
</g>
</g>
<path d="M11.8625 24.8683C10.4499 23.0762 9.07891 21.2527 7.74819 19.3979C8.69594 18.6765 9.50659 17.776 10.125 16.7575C10.4469 16.2258 10.7255 15.6195 10.6376 15.0042C10.5497 14.3889 9.95066 13.8169 9.35012 13.9722C9.05954 14.0469 8.83303 14.265 8.58716 14.4352C7.55894 15.1461 6.29975 13.0747 5.0495 13.0374C3.79924 13 2.27331 15.1162 1.53419 16.1258C0.77122 17.1697 1.09757 18.6213 1.46415 19.8623C2.31653 22.7536 3.20765 25.6344 4.13453 28.5033C7.07166 28.3704 9.9298 26.9591 11.8253 24.7055L11.864 24.8683H11.8625Z" fill="#99491C"/>
<path d="M5.63499 15.639C4.84073 16.5545 4.41305 17.7522 4.46521 18.9649C4.47564 19.2203 4.87351 19.2218 4.86159 18.9649C4.81391 17.8583 5.18794 16.7576 5.91514 15.9198C6.08204 15.7271 5.80189 15.4449 5.63499 15.639Z" fill="#60280C"/>
<path d="M22.865 20.7642C21.6938 18.9512 19.463 18.1746 17.8491 16.7409C17.6941 16.6035 17.5317 16.3899 17.633 16.2092C17.6703 16.142 17.7388 16.0987 17.8059 16.0629C18.5376 15.6851 19.4078 16.0898 20.1574 16.4288C21.9754 17.2502 23.9588 17.6982 25.9527 17.7385C25.899 19.3201 24.3969 20.7045 22.8203 20.6238L22.865 20.7642Z" fill="#723216"/>
<path d="M56.6498 41.2154C51.2435 34.6309 42.7361 30.7972 34.2257 30.8346C28.8447 30.8585 23.127 32.2698 18.2928 29.8997C15.1456 28.3555 12.9297 25.4403 10.8331 22.6267C8.32362 23.6497 5.81417 24.6727 3.30473 25.6942C2.98136 25.8256 2.62521 25.9899 2.49557 26.3155C2.3838 26.5977 2.47917 26.9158 2.58051 27.2041C5.68751 36.0332 13.5482 43.0165 22.6665 45.0475C18.9128 57.8029 16.8891 70.6658 19.0305 83.79C21.0973 84.4606 24.556 84.5173 26.6825 84.9639C28.2636 85.2954 29.6405 86.2243 31.0502 87.0128C36.4208 90.0176 42.8195 91.1347 48.8875 90.1251C51.8693 89.6293 55.2073 88.1807 55.8839 85.2297C56.1878 83.9035 55.8749 82.5131 55.4115 81.2333C53.8319 76.874 50.4879 73.0657 50.2108 68.4361C49.877 62.8701 54.0226 58.1807 56.158 53.0329C57.3189 50.2342 57.9001 47.1936 57.8524 44.1619C57.8315 42.8612 57.6333 41.4319 56.6647 40.5672L56.6468 41.2154H56.6498Z" fill="#F6821E"/>
<path d="M4.09659 14.0291C4.32906 14.389 4.71799 14.619 5.14567 14.6504L18.8865 15.645C19.3813 15.6808 19.8954 15.7137 20.3588 15.5345C21.156 15.2253 21.5942 14.383 21.9399 13.599C22.6343 12.0264 23.2423 10.4165 23.7624 8.7782C24.0425 7.89708 24.275 6.86213 23.7445 6.10646C23.0411 5.10437 21.4228 5.19995 20.6315 4.26656C20.3976 3.99027 20.253 3.63932 19.9833 3.39738C19.3649 2.84183 18.3814 3.06883 17.608 2.76267C16.3711 2.27582 15.7944 0.489679 14.4667 0.45981C13.7901 0.444876 13.1881 0.93024 12.5116 0.969069C12.1212 0.99147 11.7367 0.861542 11.3463 0.87797C9.94849 0.93472 9.32262 2.63573 9.07674 4.01566C8.37636 4.42934 7.44202 3.91261 6.68055 4.19935C5.93844 4.47862 5.6717 5.37169 5.50033 6.14678C5.08756 8.02402 4.67329 9.90126 4.26051 11.7785L3.93119 12.8941C3.81793 13.2779 3.87754 13.6916 4.0951 14.0276L4.09659 14.0291Z" fill="#606060"/>
<path d="M10.0562 4.04719C10.3319 3.10036 10.7372 2.01314 11.6805 1.73238C12.056 1.62037 12.4568 1.66219 12.8458 1.704C13.3018 1.75329 13.8263 1.84588 14.0528 2.24463C14.1825 2.47312 14.1795 2.75239 14.1735 3.01523C14.1661 3.32885 14.1527 3.6589 13.9902 3.92622C13.8263 4.19355 13.4567 4.36081 13.19 4.19654C12.7385 3.91876 13.0484 3.1362 12.6997 2.73596C12.5299 2.37306 11.9487 2.49253 11.7013 2.80765C11.454 3.12276 11.3765 3.54689 11.1231 3.85753C10.8698 4.16816 10.2782 4.26075 10.1307 3.8874L10.0547 4.04421L10.0562 4.04719Z" fill="black"/>
<path d="M7.80368 5.58208C9.35346 5.46111 10.9107 5.4163 12.4649 5.44916C13.3799 5.46857 14.0669 6.28399 13.9327 7.19199C13.8359 7.8491 13.6347 8.50173 13.4574 9.1215C13.2801 9.73679 13.0908 10.3476 12.8747 10.9495C12.8002 11.157 12.7078 11.3616 12.5469 11.511C12.2518 11.7828 11.8063 11.7947 11.4054 11.7798C9.75431 11.7171 8.16579 12.2801 6.5728 11.8395C6.4059 11.7932 6.22857 11.738 6.11532 11.6066C5.93054 11.39 5.99015 11.0644 6.06018 10.7897C6.35971 9.62926 6.63837 7.66093 7.00793 6.51995C7.14801 6.08685 7.48777 5.55221 7.91395 5.7135L7.8007 5.58506L7.80368 5.58208Z" fill="black"/>
<path d="M4.95122 12.5388C5.4102 13.0391 6.13293 13.0451 6.76178 13.0286C7.64247 13.0047 8.52316 12.9793 9.40385 12.9554C9.83302 12.9435 10.2622 12.9316 10.6914 12.9196C11.0952 12.9077 11.5035 12.9136 11.9058 12.8703C12.5973 12.7956 13.1755 12.5044 13.5599 11.913C13.9384 11.3291 14.077 10.6152 14.1858 9.93872C14.226 9.68783 13.8431 9.5803 13.8028 9.83269C13.7134 10.3912 13.6091 10.9722 13.3498 11.4799C13.0667 12.034 12.6167 12.3715 11.9967 12.4611C11.6212 12.5149 11.2353 12.5074 10.8583 12.5179C10.4619 12.5283 10.0655 12.5403 9.6691 12.5507C8.8659 12.5731 8.06121 12.5955 7.25801 12.6179C6.62021 12.6359 5.71717 12.7867 5.23287 12.2595C5.06001 12.0698 4.77986 12.3521 4.95271 12.5403L4.95122 12.5388Z" fill="black"/>
<path d="M21.7763 6.52124C22.4707 6.59292 23.1234 7.09472 23.3708 7.7563C23.4081 7.85636 23.5049 7.92506 23.6152 7.89519C23.712 7.86831 23.791 7.75182 23.7538 7.65027C23.4393 6.81096 22.6659 6.21509 21.7763 6.12399C21.669 6.11353 21.5781 6.22255 21.5781 6.32261C21.5781 6.4391 21.669 6.51079 21.7763 6.52124Z" fill="black"/>
<path d="M22.1295 7.68194C21.3978 9.51587 20.7734 11.3916 20.2578 13.2987C20.1908 13.5466 20.5738 13.6512 20.6408 13.4048C21.1549 11.4976 21.7808 9.6234 22.5125 7.78797C22.6078 7.55052 22.2234 7.44747 22.1295 7.68194Z" fill="black"/>
<path d="M19.3561 13.4843C19.3859 13.4843 19.4157 13.4873 19.444 13.4888C19.4947 13.4933 19.4008 13.4813 19.45 13.4888C19.4649 13.4918 19.4783 13.4933 19.4932 13.4962C19.5483 13.5082 19.6034 13.5231 19.6556 13.544C19.6631 13.547 19.669 13.55 19.6765 13.5515C19.6541 13.5425 19.6496 13.5396 19.6631 13.5455C19.6765 13.5515 19.6899 13.5575 19.7033 13.5649C19.7271 13.5769 19.751 13.5903 19.7748 13.6038C19.8001 13.6187 19.8255 13.6351 19.8493 13.6516C19.8553 13.656 19.8836 13.671 19.8851 13.6769C19.8672 13.662 19.8627 13.659 19.8747 13.668C19.8806 13.6725 19.8866 13.6769 19.8925 13.6814C19.9358 13.7173 19.9775 13.7576 20.0147 13.7994C20.0252 13.8099 20.0341 13.8218 20.043 13.8338C20.0579 13.8517 20.0609 13.8517 20.043 13.8338C20.0624 13.8532 20.0788 13.883 20.0937 13.9069C20.1101 13.9323 20.1235 13.9577 20.1384 13.9831C20.1459 13.9965 20.1518 14.01 20.1578 14.0234C20.1638 14.0354 20.1861 14.0682 20.1608 14.0294C20.1906 14.0742 20.201 14.1474 20.2114 14.1996C20.2323 14.3012 20.3575 14.3699 20.4558 14.3385C20.5631 14.3042 20.6183 14.2026 20.5944 14.0936C20.4737 13.5231 19.9313 13.0915 19.3546 13.0811C19.2503 13.0796 19.1519 13.1737 19.1564 13.2797C19.1609 13.3887 19.2443 13.4768 19.3546 13.4783L19.3561 13.4843Z" fill="black"/>
<path d="M17.4808 13.1762C14.2799 13.4599 11.0567 13.4644 7.85578 13.1851C6.9438 13.106 6.0333 13.0029 5.12579 12.8775C5.0185 12.8626 4.91419 12.9029 4.8814 13.0164C4.85458 13.109 4.91419 13.2464 5.01999 13.2613C8.24173 13.7078 11.4992 13.8751 14.7508 13.7482C15.6613 13.7123 16.5718 13.6541 17.4793 13.5734C17.7311 13.551 17.7341 13.1523 17.4793 13.1762H17.4808Z" fill="black"/>
<path d="M9.35667 4.7294C10.7127 4.64726 12.0792 4.69505 13.4248 4.8892C13.9941 4.97134 14.6125 5.12665 15.1624 4.88322C15.6392 4.67265 15.9045 4.19027 16.0103 3.69894C16.1578 3.01196 15.9998 2.29362 16.201 1.61561C16.274 1.36919 15.8911 1.26465 15.818 1.50957C15.6467 2.09052 15.7242 2.69237 15.6735 3.28675C15.6362 3.72582 15.4902 4.24404 15.0834 4.48C14.5916 4.76375 13.9255 4.55915 13.4025 4.48747C12.7766 4.40085 12.1478 4.3426 11.5174 4.31423C10.7977 4.28137 10.0749 4.28884 9.35518 4.33215C9.10185 4.34708 9.09887 4.74583 9.35518 4.7294H9.35667Z" fill="black"/>
<path d="M16.3901 3.12829C16.5838 3.57632 17.0652 3.80332 17.5182 3.89442C18.0397 4.00045 18.6164 3.94221 19.0843 4.23343C19.3019 4.36933 19.5016 4.02435 19.284 3.88994C18.8236 3.6032 18.2856 3.61216 17.767 3.53599C17.3617 3.47775 16.9072 3.33289 16.7328 2.92668C16.6896 2.82662 16.5466 2.8072 16.4616 2.85499C16.3588 2.91324 16.3484 3.02972 16.3901 3.1268V3.12829Z" fill="black"/>
<path d="M15.3712 6.5156C15.021 6.49171 14.7349 6.85909 14.7423 7.21005C14.7498 7.561 14.9748 7.87462 15.24 8.10461C15.4531 8.28979 15.7124 8.44212 15.9941 8.45258C16.6408 8.47796 17.0998 7.63717 16.8092 7.05772C16.5186 6.47827 15.696 6.29457 15.1283 6.6067L15.3712 6.5171V6.5156Z" fill="black"/>
<path d="M15.2361 7.17868C15.2241 7.25335 15.2227 7.31607 15.2361 7.39074C15.2465 7.4445 15.2689 7.49677 15.2957 7.54456C15.3493 7.63865 15.4358 7.72228 15.5326 7.77157C15.6488 7.82981 15.774 7.85072 15.9022 7.82234C15.9975 7.79994 16.0929 7.7417 16.154 7.66553C16.2792 7.51171 16.3388 7.29068 16.2673 7.09803C16.2255 6.98752 16.1585 6.89642 16.0572 6.83369C15.9737 6.78142 15.8664 6.75603 15.7681 6.76052C15.5311 6.77097 15.3031 6.91733 15.2391 7.15329C15.2122 7.25335 15.2733 7.37431 15.3776 7.39821C15.4819 7.4221 15.5922 7.36685 15.622 7.25932C15.625 7.24588 15.6295 7.23393 15.6354 7.22198C15.6295 7.23841 15.622 7.25335 15.6161 7.26977C15.6265 7.24588 15.6399 7.22348 15.6563 7.20257C15.6459 7.21601 15.6354 7.22945 15.625 7.24289C15.6429 7.22049 15.6623 7.20108 15.6861 7.18316C15.6727 7.19361 15.6593 7.20406 15.6459 7.21452C15.6727 7.19361 15.701 7.17718 15.7323 7.16523L15.6846 7.18465C15.7174 7.17121 15.7517 7.16225 15.7874 7.15627C15.7696 7.15926 15.7517 7.16075 15.7353 7.16374C15.7681 7.15926 15.8008 7.15926 15.8351 7.16374C15.8172 7.16075 15.7994 7.15926 15.783 7.15627C15.8128 7.16075 15.8426 7.16822 15.8709 7.18017C15.8545 7.17419 15.8396 7.16673 15.8232 7.16075C15.8456 7.17121 15.8664 7.18315 15.8858 7.19809C15.8724 7.18764 15.859 7.17718 15.8456 7.16673C15.8649 7.18166 15.8813 7.19958 15.8977 7.219C15.8873 7.20556 15.8768 7.19212 15.8664 7.17868C15.8828 7.19958 15.8947 7.22198 15.9052 7.24588C15.8992 7.22945 15.8917 7.21452 15.8858 7.19809C15.8977 7.22646 15.9052 7.25633 15.9096 7.2862C15.9066 7.26828 15.9052 7.25036 15.9022 7.23393C15.9066 7.26679 15.9066 7.29964 15.9022 7.3325C15.9052 7.31458 15.9066 7.29666 15.9096 7.28023C15.9052 7.31756 15.8947 7.35341 15.8798 7.38925C15.8858 7.37282 15.8932 7.35789 15.8992 7.34146C15.8873 7.36983 15.8724 7.39672 15.853 7.42061C15.8634 7.40717 15.8739 7.39373 15.8843 7.38029C15.8664 7.40269 15.847 7.4221 15.8247 7.44002C15.8381 7.42957 15.8515 7.41912 15.8649 7.40866C15.8441 7.42509 15.8217 7.43704 15.7979 7.44749C15.8143 7.44152 15.8292 7.43405 15.8456 7.42808C15.8232 7.43704 15.7994 7.44301 15.774 7.44749C15.7919 7.4445 15.8098 7.44301 15.8262 7.44002C15.7979 7.44301 15.771 7.44301 15.7442 7.44002C15.7621 7.44301 15.78 7.4445 15.7964 7.44749C15.7666 7.44301 15.7368 7.43405 15.7099 7.4221L15.7576 7.44152C15.7263 7.42808 15.698 7.41165 15.6712 7.39074C15.6846 7.4012 15.698 7.41165 15.7114 7.4221C15.6846 7.4012 15.6608 7.3773 15.6399 7.35191C15.6503 7.36535 15.6608 7.37879 15.6712 7.39223C15.6503 7.36535 15.6339 7.33698 15.6205 7.30711C15.6265 7.32354 15.6339 7.33847 15.6399 7.3549C15.6295 7.32951 15.622 7.30263 15.6176 7.27575C15.6205 7.29367 15.622 7.31159 15.625 7.32802C15.622 7.30263 15.622 7.27724 15.625 7.25185C15.622 7.26977 15.6205 7.2877 15.6176 7.30412C15.6176 7.29964 15.6176 7.29367 15.6205 7.28919C15.6295 7.23542 15.6295 7.18465 15.6012 7.13537C15.5773 7.09355 15.5296 7.05472 15.4819 7.04427C15.4313 7.03232 15.3747 7.03531 15.3285 7.06368C15.2882 7.09056 15.245 7.13238 15.2376 7.18316L15.2361 7.17868Z" fill="black"/>
<path d="M20.905 6.73662C20.3566 8.58847 19.692 10.4045 18.9096 12.1712C18.8068 12.4027 19.1496 12.6058 19.2524 12.3713C20.0481 10.5732 20.7291 8.72736 21.288 6.84266C21.361 6.59624 20.978 6.4917 20.905 6.73662Z" fill="black"/>
<path d="M36.8069 29.5471C36.7861 29.5351 31.3008 24.795 31.0549 24.1752C30.9163 23.8243 30.4141 17.6191 29.6705 16.4915C29.3308 15.9763 28.8465 15.5761 28.4143 15.137C26.27 12.9551 25.4221 9.81742 23.6398 7.32937C23.5951 7.26664 23.54 7.21139 23.4729 7.17256C23.0124 6.90971 22.6876 7.61611 22.7174 8.11342C22.7859 9.2753 23.1838 10.4148 23.8529 11.3661C23.1436 11.0032 22.3359 10.8344 21.5416 10.8837C21.4701 10.8882 21.3971 10.8987 21.3286 10.9166C20.4181 11.166 20.7995 12.3622 21.4999 12.7177C22.1303 13.0372 22.8917 13.0014 23.534 13.2971C24.3402 13.6675 24.8573 14.5859 24.7589 15.4685C22.9961 14.8562 21.1602 14.4545 19.3034 14.2738C18.9875 14.2424 18.6164 14.2633 18.3065 14.3619C17.8401 14.5128 17.7611 15.149 18.1768 15.4088C20.1603 16.6498 22.9424 16.6797 24.4147 18.5121C22.6623 18.4823 20.9053 18.7212 19.2244 19.2185C18.691 19.3754 18.0368 19.8667 18.3527 20.3431C18.4317 20.4626 18.5554 20.5492 18.6924 20.5925C19.5195 20.8613 20.3942 20.9838 21.263 20.9554C21.5998 20.9449 21.9976 20.9375 22.1973 21.2093C22.3195 21.375 22.324 21.5961 22.327 21.8007C22.3359 22.9551 22.3702 24.1289 22.7338 25.2251C23.0974 26.3198 23.8425 27.3428 24.9109 27.7729C25.3654 27.9566 25.8602 28.0268 26.3042 28.2314C27.1119 28.6047 29.9551 32.6758 30.8507 33.9646L36.8099 29.5441L36.8069 29.5471Z" fill="#99491C"/>
<path d="M27.5806 28.6555C28.123 28.2284 28.6654 27.8012 29.2079 27.3741C29.2928 27.3084 29.2779 27.162 29.2079 27.0934C29.1244 27.0097 29.0112 27.0261 28.9277 27.0934C28.3853 27.5205 27.8429 27.9476 27.3004 28.3747C27.2155 28.4404 27.2304 28.5868 27.3004 28.6555C27.3839 28.7391 27.4971 28.7227 27.5806 28.6555Z" fill="#60280C"/>
<path d="M23.4005 11.0453C25.0963 11.665 26.4658 13.0838 27.0335 14.7997C27.114 15.0417 27.497 14.9386 27.4165 14.6937C26.804 12.8374 25.3392 11.329 23.5063 10.6614C23.2664 10.5733 23.1621 10.9586 23.4005 11.0453Z" fill="#60280C"/>
<path d="M1.51311 19.1963C0.6965 17.3594 -0.130544 13.4347 0.161529 11.4454C0.246469 10.8645 0.392505 10.2656 0.775479 9.82209C1.15845 9.37855 1.84244 9.14706 2.35059 9.43828C2.51004 8.81403 2.90642 8.23607 3.47865 7.94635C4.05087 7.65662 4.80192 7.69844 5.28622 8.12257C5.81374 8.58554 5.92848 9.36212 5.9106 10.0655C5.89272 10.7689 5.78096 11.4903 5.98809 12.1623C6.10283 12.5342 6.31295 12.8702 6.43812 13.2391C6.5633 13.6079 6.5931 14.044 6.36659 14.3606C6.12966 14.6937 5.65727 14.8012 5.26387 14.6907C4.87046 14.5802 4.55008 14.2889 4.30569 13.9604C4.42341 14.4876 4.53965 15.0371 4.40404 15.5598C4.26844 16.0825 3.79307 16.5575 3.25661 16.4992C3.12697 16.4843 3.0003 16.441 2.86917 16.4484C2.41616 16.4753 2.23286 17.0503 1.86181 17.3101C1.58315 17.5058 1.17782 17.5013 0.905124 17.2982L1.51162 19.1933L1.51311 19.1963Z" fill="#99491C"/>
<path d="M45.0685 11.8934C44 14.931 39.5265 23.6437 39.6591 25.3282C39.7947 27.0636 43.9478 29.6308 43.9478 29.6308C43.9478 29.6308 42.2595 33.0642 42.106 34.3665C41.9585 35.612 42.4919 36.6484 43.5917 37.2458C47.1517 39.1813 50.2349 40.7359 50.4018 40.4193C51.5119 38.3196 51.9828 32.7341 53.093 30.6329C53.0289 31.3169 56.8423 32.2786 57.8824 28.1045C58.1849 26.8933 56.7797 25.3014 55.6323 25.7882C56.2552 22.9223 57.0449 20.0938 57.9942 17.3205L45.067 11.8904L45.0685 11.8934Z" fill="#99491C"/>
<path d="M2.2306 9.91626C2.36174 10.7899 2.48393 11.677 2.78494 12.5118C3.08447 13.3407 3.5643 14.068 4.19166 14.6848C4.37495 14.864 4.65511 14.5832 4.47182 14.404C3.87277 13.8141 3.41081 13.1212 3.13662 12.3222C2.85796 11.5112 2.73726 10.6555 2.61208 9.81023C2.57483 9.55784 2.19186 9.66537 2.22911 9.91626H2.2306Z" fill="#60280C"/>
<path d="M0.0119401 12.5643C0.417266 13.647 1.00737 14.6506 1.76289 15.5258C2.09967 15.9155 2.50201 16.3053 3.0191 16.4323C3.48701 16.5473 3.96536 16.3456 4.14418 15.8827C4.34088 15.3719 4.11736 14.8014 4.08308 14.2817C4.0652 14.0278 3.66881 14.0264 3.6867 14.2817C3.71501 14.6939 3.85062 15.1076 3.82081 15.5228C3.79101 15.9424 3.45274 16.1515 3.05934 16.0305C2.62123 15.8961 2.29637 15.5392 2.00877 15.2017C1.68391 14.8209 1.39184 14.4131 1.13404 13.9845C0.841964 13.4992 0.594596 12.9884 0.396404 12.4583C0.306994 12.2208 -0.0759799 12.3238 0.0134302 12.5643H0.0119401Z" fill="#60280C"/>
<path d="M66.1131 19.3203C63.2177 22.9314 60.5145 26.6963 58.0215 30.5972C57.3121 31.7053 56.6222 33.1823 57.3941 34.2486C57.6951 34.6638 58.1675 34.9177 58.6384 35.1223C59.7009 35.5867 62.9122 36.6605 62.9286 36.895C63.1163 39.498 63.5857 46.0452 63.4457 46.6978C63.3071 47.3489 62.9882 47.9448 62.6902 48.5392C61.8765 50.1596 61.1821 51.8382 60.6144 53.5601C60.1196 55.0625 59.8529 57.0189 61.1255 57.9538C61.8765 58.5049 62.942 58.4541 63.7854 58.0598C64.6289 57.6641 65.2965 56.9786 65.9283 56.2916C68.6434 53.3361 71.0411 50.0894 73.0692 46.6246C72.4478 43.4765 71.9694 40.3 71.6356 37.1085C72.7503 37.8926 74.5668 37.1712 74.844 35.8361C75.1211 34.4995 73.7412 33.1136 72.4075 33.3869C72.9455 32.4505 73.4849 31.5156 74.0229 30.5793C74.154 30.3523 74.2867 30.1148 74.303 29.8535C74.3209 29.5518 74.1779 29.2665 74.0378 28.9977C73.4358 27.8403 72.8352 26.6814 72.2332 25.524C71.5462 24.2008 70.8473 22.8612 69.8549 21.7501C68.8624 20.6375 67.6256 19.4995 66.1429 19.3621L66.1131 19.3233V19.3203Z" fill="#A35F31"/>
<path opacity="0.57" d="M43.9623 29.6323L49.7635 31.9053L42.7344 32.0114L43.9623 29.6323Z" fill="#60280C"/>
<path d="M23.1695 44.9085C24.4406 42.1621 25.9456 39.5262 27.6698 37.0397C28.1526 36.3437 28.6518 35.6597 29.1674 34.9877C29.233 34.9026 29.1793 34.7652 29.0959 34.7159C28.9945 34.6547 28.8887 34.7024 28.8246 34.7876C26.9828 37.1875 25.3481 39.7457 23.9473 42.4279C23.5554 43.1791 23.1814 43.9393 22.8252 44.7084C22.7179 44.9399 23.0607 45.1415 23.168 44.9085H23.1695Z" fill="#914A26"/>
<path d="M3.75535 26.6605C4.15025 27.3325 4.54663 28.0046 4.94153 28.6766C5.07117 28.8976 5.41391 28.6975 5.28427 28.475L4.09809 26.4589C3.96845 26.2378 3.62571 26.438 3.75535 26.659V26.6605Z" fill="#914A26"/>
<path d="M4.82532 26.1005C5.3752 26.5142 5.79989 27.0802 6.06813 27.7134C6.10985 27.812 6.25589 27.8344 6.33934 27.7851C6.44216 27.7253 6.45259 27.6118 6.41086 27.5133C6.11581 26.8143 5.63002 26.2125 5.02501 25.757C4.93858 25.6928 4.80297 25.7436 4.7538 25.8287C4.69419 25.9302 4.73889 26.0363 4.82532 26.1005Z" fill="#914A26"/>
<path d="M6.14226 25.4702C6.53566 26.0766 6.93056 26.6829 7.32396 27.2892C7.46255 27.5028 7.80678 27.3042 7.6667 27.0876C7.2733 26.4813 6.8784 25.8749 6.485 25.2686C6.34641 25.055 6.00218 25.2537 6.14226 25.4687V25.4702Z" fill="#914A26"/>
<path d="M7.69907 24.8934C8.04329 25.4221 8.38901 25.9493 8.73324 26.478C8.79136 26.5676 8.90908 26.6049 9.00445 26.5496C9.09386 26.4974 9.1341 26.3674 9.07598 26.2778C8.73175 25.7492 8.38603 25.222 8.0418 24.6933C7.98369 24.6037 7.86596 24.5664 7.77059 24.6216C7.68118 24.6739 7.64095 24.8038 7.69907 24.8934Z" fill="#914A26"/>
<path d="M9.37962 23.9525C9.87436 24.2736 10.2648 24.7351 10.5092 25.2862C10.5524 25.3847 10.6954 25.4071 10.7804 25.3578C10.8817 25.2981 10.8951 25.1846 10.8519 25.086C10.5837 24.4812 10.1336 23.9675 9.5793 23.609C9.48989 23.5508 9.36025 23.5911 9.30809 23.6807C9.25147 23.7778 9.28872 23.8943 9.37962 23.9525Z" fill="#914A26"/>
<path d="M10.7674 23.5014C11.0401 23.8314 11.3128 24.1615 11.5855 24.49C11.6526 24.5707 11.7986 24.5647 11.8657 24.49C11.9446 24.4049 11.9372 24.2944 11.8657 24.2093C11.593 23.8792 11.3203 23.5492 11.0476 23.2206C10.9805 23.14 10.8345 23.1459 10.7674 23.2206C10.6884 23.3057 10.6959 23.4163 10.7674 23.5014Z" fill="#914A26"/>
<path d="M12.7425 37.1771C13.2894 37.767 13.8363 38.3569 14.3832 38.9483C14.5576 39.1364 14.8377 38.8542 14.6634 38.6675C14.1165 38.0776 13.5696 37.4862 13.0227 36.8963C12.8484 36.7081 12.5682 36.9904 12.7425 37.1771Z" fill="#914A26"/>
<path d="M14.4335 37.0339C14.7673 37.1668 15.1025 37.2982 15.4363 37.4312C15.5332 37.47 15.6584 37.3893 15.6807 37.2923C15.7061 37.1773 15.6465 37.0892 15.5421 37.0474C15.2083 36.9144 14.8731 36.783 14.5393 36.6501C14.4424 36.6113 14.3172 36.6919 14.2949 36.789C14.2695 36.904 14.3291 36.9921 14.4335 37.0339Z" fill="#914A26"/>
<path d="M16.5662 40.7704C16.6988 40.9048 16.8329 41.0392 16.9655 41.1736C17.0013 41.2095 17.0549 41.2319 17.1056 41.2319C17.1563 41.2319 17.2129 41.2095 17.2457 41.1736C17.2799 41.1363 17.3068 41.0855 17.3038 41.0332C17.3008 40.981 17.2829 40.9302 17.2457 40.8929C17.113 40.7585 16.9789 40.6241 16.8463 40.4896C16.8105 40.4538 16.7569 40.4314 16.7062 40.4314C16.6556 40.4314 16.5989 40.4538 16.5662 40.4896C16.5319 40.527 16.5051 40.5778 16.508 40.63C16.511 40.6823 16.5289 40.7331 16.5662 40.7704Z" fill="#914A26"/>
<path d="M22.4787 83.3018C25.766 83.4362 29.0414 83.8409 32.2616 84.5174C33.035 84.6802 33.8144 84.84 34.5714 85.07C35.3105 85.294 35.9692 85.6315 36.6055 86.0691C37.212 86.4857 37.8021 86.9188 38.4727 87.2339C39.1105 87.5341 39.7825 87.7507 40.4695 87.9015C42.058 88.2495 43.6957 88.2674 45.314 88.2749C45.5689 88.2749 45.5703 87.8776 45.314 87.8776C43.8701 87.8716 42.4127 87.8597 40.9866 87.5998C40.2922 87.4729 39.6052 87.2892 38.954 87.0159C38.267 86.7277 37.6561 86.32 37.0481 85.8943C36.4267 85.4583 35.7963 85.0744 35.0796 84.8191C34.3434 84.5562 33.5715 84.3949 32.81 84.2292C31.2185 83.8827 29.6136 83.6019 27.9983 83.3854C26.1669 83.1405 24.325 82.9807 22.4802 82.9045C22.2254 82.894 22.2254 83.2928 22.4802 83.3018H22.4787Z" fill="#914A26"/>
<path d="M57.0817 18.5404C55.0014 18.9959 53.5306 18.191 51.4027 18.1223C50.142 18.082 48.8053 17.9192 47.8158 17.1351C47.6221 16.9813 47.4388 16.7961 47.3718 16.5587C47.2123 15.9927 47.7875 15.4655 48.3598 15.34C48.932 15.2146 49.537 15.3266 50.1092 15.1982C48.1169 15.4177 45.8145 15.5327 44.4227 14.0856C44.7357 13.6256 45.3228 13.3687 45.8712 13.4523C45.2811 13.6868 44.6671 13.9272 44.0338 13.8899C43.4005 13.8541 42.7388 13.4583 42.6092 12.8356C42.4333 11.9918 43.2857 11.2615 44.1232 11.0673C44.9607 10.8717 45.8548 10.9882 46.6744 10.7283C47.1333 10.5835 47.5565 10.3251 48.0289 10.237C48.6444 10.1235 49.2702 10.3132 49.8633 10.5133C52.8452 11.5198 55.7152 12.858 58.4035 14.4977C59.1128 14.9308 59.8355 15.4102 60.2558 16.1286C61.0441 17.4786 60.5329 19.1916 59.9354 20.6357C59.1352 22.5712 58.2113 24.4559 57.1696 26.2734C56.8239 25.6969 55.9432 25.6701 55.3844 26.0419C54.8256 26.4138 54.5082 27.0485 54.2176 27.6548C53.8913 27.3815 53.5262 27.156 53.1372 26.9843C54.2862 23.9676 57.0802 18.5404 57.0802 18.5404H57.0817Z" fill="black"/>
<path d="M53.3672 11.4275C57.2088 14.4248 61.125 16.1826 59.3472 24.1948C60.2279 23.23 61.1086 22.2489 61.7449 21.1079C62.3812 19.9669 62.7597 18.6363 62.5541 17.3459C62.3037 15.7778 61.2412 14.4666 60.0998 13.366C58.9628 12.2698 57.4875 11.2363 55.9377 11.5261L53.3687 11.4275H53.3672Z" fill="#B77115"/>
<path d="M54.4477 29.1738C55.166 28.6556 55.9573 28.2508 56.8007 27.982C57.0436 27.9044 56.9393 27.5205 56.6949 27.5982C55.8202 27.8775 54.9916 28.2912 54.2465 28.8303C54.1601 28.893 54.1169 29.0035 54.175 29.1021C54.2257 29.1887 54.3598 29.2365 54.4462 29.1738H54.4477Z" fill="#60280C"/>
<path d="M55.4822 28.4511C55.4166 28.7856 55.351 29.1202 55.2855 29.4547C55.2661 29.5563 55.3138 29.6742 55.424 29.6996C55.5224 29.722 55.6476 29.6698 55.6684 29.5607C55.734 29.2262 55.7996 28.8917 55.8651 28.5572C55.8845 28.4556 55.8368 28.3376 55.7265 28.3122C55.6282 28.2898 55.503 28.3421 55.4822 28.4511Z" fill="#60280C"/>
<path d="M42.9623 23.3254C44.2215 24.102 45.5508 24.7636 46.9292 25.2998L46.3361 25.4177C43.4168 26.599 42.7642 25.1579 42.9623 23.3254Z" fill="white"/>
<path d="M42.8581 23.4972C44.1337 24.2827 45.4778 24.9473 46.8726 25.4909V25.1071C46.7325 25.1355 46.5924 25.1624 46.4524 25.1907C46.2601 25.2296 46.0888 25.3027 45.9025 25.367C45.4271 25.5327 44.922 25.6686 44.4153 25.6432C44.1068 25.6283 43.7954 25.5357 43.5704 25.3162C43.3543 25.1056 43.2425 24.8204 43.1814 24.5306C43.1412 24.335 43.1263 24.1364 43.1248 23.9363C43.1248 23.8243 43.1278 23.7137 43.1338 23.6017C43.1397 23.5017 43.177 23.3703 43.1501 23.2717C43.0831 23.0253 42.7001 23.1298 42.7672 23.3777C42.7523 23.3255 42.7538 23.4001 42.7508 23.4121C42.7448 23.439 42.7448 23.4703 42.7433 23.4987C42.7404 23.545 42.7374 23.5898 42.7344 23.6361C42.7284 23.7466 42.7255 23.8586 42.7269 23.9691C42.7299 24.1677 42.7478 24.3679 42.7836 24.565C42.8462 24.9145 42.9818 25.2564 43.2172 25.5253C43.8222 26.2152 44.8668 26.0928 45.6551 25.8643C45.9263 25.7866 46.1886 25.6477 46.4643 25.5925C46.6357 25.5581 46.8055 25.5253 46.9769 25.4909C47.1885 25.4491 47.1408 25.1713 46.9769 25.1071C45.6149 24.5754 44.3035 23.9198 43.0578 23.1522C42.8387 23.0178 42.639 23.3613 42.8581 23.4957V23.4972Z" fill="#60280C"/>
<path d="M47.5213 18.5389C46.3068 19.6082 45.0431 20.6207 43.7362 21.5721C43.6155 21.6602 43.6021 21.8304 43.7362 21.9156C44.2697 22.2575 44.8047 22.598 45.3382 22.94C45.5543 23.0774 45.7539 22.7339 45.5379 22.5966C45.0044 22.2546 44.4694 21.9141 43.9359 21.5721V21.9156C45.2711 20.9433 46.5616 19.9114 47.8014 18.8197C47.9937 18.6509 47.712 18.3702 47.5213 18.5389Z" fill="#60280C"/>
<path d="M49.3912 21.7964C49.7533 21.5231 50.26 21.4843 50.646 21.7352C50.9976 21.9637 51.1839 22.4281 51.099 22.8388C51.0766 22.9434 51.1288 23.0539 51.2375 23.0837C51.3359 23.1106 51.4596 23.0509 51.4819 22.9448C51.6026 22.3609 51.3612 21.7456 50.8695 21.4081C50.3777 21.0706 49.6639 21.096 49.1916 21.4529C49.1066 21.5171 49.0619 21.6247 49.12 21.7247C49.1692 21.8098 49.3048 21.8606 49.3912 21.7964Z" fill="black"/>
<path d="M43.1256 18.6524C43.4877 18.3791 43.9944 18.3402 44.3803 18.5911C44.732 18.8196 44.9183 19.2841 44.8333 19.6948C44.811 19.7993 44.8631 19.9098 44.9719 19.9397C45.0703 19.9666 45.194 19.9068 45.2163 19.8008C45.337 19.2169 45.0956 18.6016 44.6039 18.2641C44.1121 17.9266 43.3983 17.9519 42.9259 18.3089C42.841 18.3731 42.7963 18.4806 42.8544 18.5807C42.9036 18.6658 43.0392 18.7166 43.1256 18.6524Z" fill="black"/>
<path d="M50.3164 19.0367C50.1525 19.2025 49.9886 19.3668 49.8247 19.5325C49.7159 19.6415 49.5997 19.7984 49.6697 19.9357C49.7159 20.0268 49.8247 20.0612 49.923 20.0896C50.9885 20.4077 51.9497 21.0648 52.6351 21.9414C53.0286 21.2754 52.9809 20.3748 52.5174 19.755C52.0555 19.1353 51.2061 18.8336 50.458 19.0233L50.315 19.0352L50.3164 19.0367Z" fill="black"/>
<path d="M47.0802 17.0171C47.0057 17.2382 46.9297 17.4577 46.8552 17.6787C46.806 17.8251 46.7181 17.9998 46.5631 17.9968C46.4618 17.9953 46.3828 17.9132 46.3128 17.8385C45.5558 17.0231 44.5409 16.4511 43.4531 16.2241C43.8734 15.576 44.7004 15.219 45.4604 15.3594C46.2189 15.4998 46.8656 16.1285 47.028 16.8842L47.0802 17.0186V17.0171Z" fill="black"/>
<path d="M48.5123 10.2085C48.0057 10.3459 47.4886 10.4296 46.9641 10.452C46.4336 10.4744 45.9165 10.4146 45.3904 10.3654C44.5574 10.2877 43.4592 10.3893 43.0851 11.2808C42.9123 11.693 42.9555 12.1754 43.264 12.5099C43.4368 12.6981 43.717 12.4173 43.5441 12.2292C43.2476 11.9051 43.3817 11.3913 43.6767 11.118C44.0552 10.7671 44.6141 10.7178 45.1043 10.7417C45.6959 10.7716 46.2771 10.8716 46.8717 10.8537C47.4618 10.8358 48.0489 10.7462 48.6181 10.5924C48.864 10.5252 48.7597 10.1413 48.5123 10.2085Z" fill="black"/>
<path d="M58.6316 21.7173C58.4573 22.4163 58.493 23.1615 58.7434 23.838C58.7806 23.9381 58.8775 24.0068 58.9878 23.9769C59.0846 23.95 59.1636 23.8335 59.1264 23.732C58.8984 23.1197 58.8552 22.4581 59.0146 21.8234C59.0772 21.5755 58.6942 21.4694 58.6316 21.7173Z" fill="black"/>
<path d="M57.7357 23.3795C57.7178 23.9082 57.8773 24.4443 58.1887 24.873C58.2513 24.9596 58.3616 25.0029 58.46 24.9446C58.5449 24.8939 58.5941 24.7595 58.5315 24.6728C58.2528 24.289 58.1172 23.847 58.1321 23.3795C58.1351 23.272 58.0382 23.1809 57.9339 23.1809C57.8236 23.1809 57.7387 23.272 57.7357 23.3795Z" fill="black"/>
<path d="M66.0043 19.3876C65.3054 20.6675 65.6198 22.4163 66.7196 23.3706C67.7537 24.2696 69.3586 24.519 70.0397 25.7078C70.5359 26.574 70.3645 27.6478 70.2572 28.6409C70.1499 29.634 70.1782 30.7765 70.9203 31.4426C71.2094 31.7024 71.5939 31.8727 71.7876 32.2102C72.0827 32.7239 71.9202 33.5647 72.4731 33.7738C72.713 33.8649 72.9798 33.7693 73.2361 33.7499C74.0631 33.6827 75.3312 34.6355 75.1316 35.442C75.5399 34.6758 75.4341 33.847 75.8424 33.0808C76.2879 32.246 76.7469 31.344 76.6411 30.4031C76.5085 29.2233 75.5339 28.3288 75.0913 27.2281C74.6562 26.1439 74.7531 24.8954 74.2702 23.8321C73.8366 22.8778 72.9872 22.1863 72.1542 21.5516C71.2586 20.8706 70.3451 20.212 69.4317 19.5549C68.9071 19.177 68.3602 18.7887 67.7269 18.6618C67.0936 18.5349 66.344 18.741 66.0371 19.3114L66.0043 19.3846V19.3876Z" fill="#0C0C0C"/>
<path d="M71.8048 31.2051C71.7825 32.131 71.3056 33.0345 70.5561 33.5737C69.9466 34.0127 69.0182 34.171 68.4922 33.6349C69.1926 34.2621 70.2074 34.5175 71.1208 34.298C72.0343 34.0769 72.8211 33.3855 73.1594 32.5073L71.8048 31.2051Z" fill="#0C0C0C"/>
<path opacity="0.35" d="M62.9688 36.8843L68.001 37.0799L62.9688 38.8496V36.8843Z" fill="#603314"/>
<path d="M72.1735 36.0883C72.7353 35.8015 73.3254 35.579 73.9334 35.4177C74.1808 35.352 74.075 34.9682 73.8276 35.0339C73.1854 35.2027 72.564 35.4431 71.9724 35.7448C71.877 35.7941 71.8487 35.9285 71.9008 36.0166C71.9575 36.1137 72.0767 36.1375 72.172 36.0883H72.1735Z" fill="#603314"/>
<path d="M72.6788 35.7879C72.6996 35.8044 72.6698 35.779 72.6653 35.776C72.6713 35.779 72.6773 35.7849 72.6817 35.7894C72.6937 35.7999 72.7071 35.8103 72.719 35.8223C72.7399 35.8417 72.7607 35.8626 72.7801 35.885C72.7905 35.8969 72.8009 35.9104 72.8114 35.9223C72.8293 35.9432 72.8054 35.9119 72.8009 35.9074C72.8054 35.9119 72.8099 35.9193 72.8144 35.9253C72.8322 35.9507 72.8501 35.9761 72.865 36.003C72.8799 36.0284 72.8933 36.0538 72.9053 36.0806C72.9082 36.0866 72.9112 36.0941 72.9142 36.1001C72.9246 36.1225 72.8978 36.0597 72.9067 36.0836C72.9127 36.0986 72.9187 36.115 72.9246 36.1299C72.9455 36.1882 72.9589 36.2494 72.9678 36.3121C72.9649 36.2942 72.9634 36.2763 72.9604 36.2599C72.9634 36.2823 72.9649 36.3032 72.9664 36.3256C72.9723 36.4286 73.0528 36.5302 73.1645 36.5242C73.2659 36.5197 73.3702 36.4361 73.3627 36.3256C73.3508 36.1493 73.3046 35.9821 73.2212 35.8268C73.1377 35.6729 73.0185 35.546 72.8784 35.4429C72.8397 35.4146 72.7697 35.4101 72.7249 35.4235C72.6788 35.437 72.6296 35.4713 72.6057 35.5146C72.5819 35.5609 72.5685 35.6162 72.5864 35.6685C72.6028 35.7207 72.634 35.7551 72.6773 35.7879H72.6788Z" fill="#603314"/>
<path d="M65.4874 27.2845C64.3817 28.4613 63.2074 29.5724 61.972 30.6119C61.8811 30.688 61.899 30.8762 62.0123 30.924C62.5383 31.1525 63.1165 31.1898 63.6619 31.0017C63.9018 30.9195 63.799 30.5342 63.5561 30.6178C63.118 30.7687 62.6411 30.7657 62.212 30.579C62.2254 30.6836 62.2388 30.7881 62.2522 30.8911C63.4876 29.8517 64.6618 28.7406 65.7675 27.5638C65.9433 27.3771 65.6617 27.0948 65.4874 27.283V27.2845Z" fill="#603314"/>
<path d="M67.9351 16.8517C66.2765 16.8144 64.6582 17.7134 63.7686 19.1098C63.5331 19.4786 63.3692 19.8789 63.2321 20.2926C63.0786 20.7585 62.943 21.2379 62.6495 21.6396C62.0966 22.3953 61.1891 22.7866 60.5096 23.4093C60.1356 23.7513 59.8211 24.174 59.6945 24.6728C59.5753 25.1432 59.62 25.6599 59.9076 26.0602C60.0551 26.2663 60.4008 26.0676 60.2503 25.8601C59.7138 25.1133 60.2235 24.2038 60.8106 23.6737C61.4633 23.0823 62.2963 22.7015 62.8611 22.01C63.4333 21.3111 63.5182 20.4031 63.9295 19.622C64.2887 18.9395 64.8326 18.3631 65.4808 17.9509C66.214 17.4849 67.0648 17.2295 67.9336 17.249C68.1899 17.2549 68.1884 16.8562 67.9336 16.8517H67.9351Z" fill="#0C0C0C"/>
<path d="M67.4801 30.5016C67.2118 30.8943 66.7752 31.0616 66.507 30.8764C66.2373 30.6912 66.2373 30.2238 66.507 29.831C66.7752 29.4382 67.2118 29.271 67.4801 29.4547C67.7498 29.6398 67.7498 30.1073 67.4801 30.5001V30.5016Z" fill="black"/>
<path d="M62.5972 27.5473C62.329 27.9401 61.8924 28.1074 61.6242 27.9237C61.3544 27.7385 61.3544 27.2711 61.6242 26.8783C61.8924 26.4855 62.329 26.3183 62.5972 26.5034C62.867 26.6886 62.867 27.1561 62.5972 27.5488V27.5473Z" fill="black"/>
<path d="M63.0639 32.6177C63.6898 32.6551 64.3216 32.4953 64.8581 32.1682C65.0756 32.0353 64.8759 31.6903 64.6584 31.8247C64.1785 32.1174 63.6257 32.2533 63.0654 32.2205C62.9581 32.2145 62.8672 32.3161 62.8672 32.4191C62.8672 32.5326 62.9581 32.6118 63.0654 32.6177H63.0639Z" fill="#603314"/>
<path d="M67.8615 27.6956C67.6559 27.8987 67.4934 28.1466 67.3906 28.4184C68.1789 28.7081 68.7795 29.4563 68.8927 30.2911C68.9762 29.7864 69.0462 29.2607 68.9076 28.7663C68.769 28.2735 68.3682 27.818 67.8585 27.7777L67.8615 27.6971V27.6956Z" fill="#3D220C"/>
<path d="M65.0712 24.7072C64.9431 24.9671 64.7583 25.1985 64.5333 25.3807C64.0132 24.7207 63.1146 24.3831 62.2891 24.5355C62.7421 24.298 63.2189 24.068 63.7286 24.0456C64.2397 24.0232 64.7955 24.2637 64.9937 24.7356L65.0697 24.7072H65.0712Z" fill="#3D220C"/>
<path d="M84.9355 42.3847C84.9355 42.1099 85.1351 41.9024 85.3736 41.7933C85.6805 41.6544 86.0322 41.7157 86.3437 41.8128C86.9844 42.0129 87.6192 42.3116 88.2168 42.6147C88.792 42.9089 89.3821 43.2584 89.8277 43.7363C89.9946 43.9155 90.151 44.2127 89.862 44.3561C89.6205 44.474 89.318 44.4412 89.0602 44.4277C88.2392 44.3829 87.43 44.2231 86.6491 43.9648C86.4212 43.8901 86.3258 44.2037 86.4957 44.3292C87.1618 44.813 87.959 45.043 88.6951 45.3955C89.4745 45.7688 90.1093 46.3214 90.3239 47.1906C90.385 47.4385 90.768 47.334 90.7069 47.0846C90.4819 46.1795 89.8411 45.5299 89.0275 45.1177C88.257 44.7264 87.4017 44.4994 86.6953 43.9857C86.6447 44.1067 86.594 44.2276 86.5419 44.3501C87.3749 44.6249 88.2436 44.7877 89.1198 44.8295C89.4447 44.8459 89.8053 44.8549 90.0959 44.6816C90.3895 44.5069 90.4982 44.1649 90.3701 43.8498C90.2285 43.4988 89.8962 43.2405 89.6056 43.015C89.2957 42.7745 88.9634 42.5639 88.6177 42.3773C88.2675 42.1891 87.9068 42.0218 87.5418 41.865C87.1647 41.7022 86.7847 41.526 86.3913 41.411C85.9696 41.2886 85.5077 41.2632 85.1128 41.4812C84.779 41.6649 84.5391 41.995 84.5391 42.3847C84.5391 42.6401 84.9369 42.6416 84.9355 42.3847Z" fill="#603314"/>
<path d="M88.8053 37.8613C88.7353 39.0082 88.8918 40.1716 89.2688 41.2573C89.3627 41.5262 89.4699 41.792 89.5877 42.0504C89.683 42.2594 89.8216 42.4939 90.0943 42.3894C90.3193 42.3027 90.4147 41.9593 90.4982 41.7562C90.604 41.4993 90.6874 41.2349 90.7455 40.9631C90.8782 40.3449 90.8856 39.7117 90.7753 39.0904C90.7336 38.8574 90.4013 38.9336 90.3849 39.1427C90.3402 39.755 90.3611 40.3658 90.443 40.9736C90.4833 41.2708 90.5384 41.5665 90.6099 41.8577C90.674 42.122 90.7262 42.4357 90.896 42.6552C91.0406 42.8404 91.276 42.9628 91.5145 42.9225C91.7454 42.8837 91.8974 42.703 92.0241 42.5208C92.3206 42.0907 92.4905 41.5814 92.5799 41.0692C92.6842 40.4688 92.6947 39.8595 92.6962 39.2517C92.6962 38.9963 92.2998 38.9948 92.2998 39.2517C92.2998 39.8311 92.2968 40.418 92.1925 40.9885C92.1418 41.2663 92.0703 41.5441 91.9615 41.8054C91.8691 42.0265 91.741 42.3147 91.5532 42.4715C91.2999 42.6836 91.1449 42.2998 91.0898 42.1101C90.9959 41.7905 90.9229 41.4664 90.8677 41.1379C90.7575 40.4778 90.7336 39.8057 90.7828 39.1397C90.6531 39.1576 90.5235 39.1755 90.3924 39.1919C90.4967 39.7789 90.4758 40.3867 90.3372 40.9661C90.2657 41.2648 90.1644 41.559 90.0303 41.8353C90.0094 41.8771 89.9587 41.9413 89.9528 41.9891C89.9006 42.0518 89.923 42.0668 90.0213 42.0354C90.0034 41.9996 89.987 41.9637 89.9692 41.9279C89.9006 41.7815 89.8365 41.6337 89.7769 41.4829C89.3224 40.3314 89.1272 39.0934 89.2032 37.8568C89.2181 37.6014 88.8217 37.6014 88.8068 37.8568L88.8053 37.8613Z" fill="#603314"/>
<path d="M91.3728 43.1657C91.0152 44.0498 91.0018 45.0608 91.3296 45.9569C91.4176 46.1958 91.8005 46.0928 91.7126 45.8508C91.4041 45.013 91.4205 44.099 91.7558 43.2717C91.7961 43.1716 91.7111 43.0536 91.6172 43.0268C91.504 42.9939 91.4131 43.0671 91.3728 43.1657Z" fill="#603314"/>
<path d="M90.6653 48.9914C91.1838 48.8659 91.7039 48.742 92.2225 48.6165C92.3268 48.5911 92.3894 48.4732 92.3611 48.3716C92.3313 48.2656 92.221 48.2073 92.1167 48.2327C91.5981 48.3582 91.078 48.4821 90.5595 48.6076C90.4551 48.633 90.3926 48.7509 90.4209 48.8525C90.4507 48.9585 90.561 49.0168 90.6653 48.9914Z" fill="#603314"/>
<path d="M92.7982 62.465C93.8235 64.4274 94.8487 66.3897 95.8725 68.3521C95.9917 68.5791 96.3344 68.3775 96.2152 68.152C95.19 66.1896 94.1647 64.2272 93.141 62.2649C93.0218 62.0379 92.679 62.2395 92.7982 62.465Z" fill="#603314"/>
<path d="M85.922 34.0483C85.9115 36.4916 86.7118 38.8288 87.506 41.1063C87.5895 41.3467 87.9739 41.2437 87.889 41.0002C87.1052 38.7556 86.3079 36.4542 86.3184 34.0468C86.3184 33.7915 85.922 33.79 85.922 34.0468V34.0483Z" fill="#603314"/>
<path d="M6.48355 14.7412C6.24214 20.349 6.40308 26.2122 7.25993 31.7588C7.4909 33.2537 7.51624 35.5715 7.51624 35.5715C7.31953 36.1719 6.24512 38.6495 6.23469 38.6211C6.20936 38.5569 7.71741 47.2397 8.6279 50.228C9.30891 52.4592 10.1196 54.6769 10.3461 56.9992C10.5696 59.3021 10.2105 61.6363 10.4772 63.9347C10.7454 66.2331 11.8526 68.6614 13.9955 69.5261C15.7599 70.2385 17.852 69.6889 19.3452 68.5091C20.8383 67.3293 21.8114 65.6073 22.5207 63.8391C23.5013 61.3929 24.0482 58.7689 24.0765 56.133C24.0959 54.3753 24.4624 52.6474 24.2538 50.9031C23.7337 46.5467 23.4938 41.8544 22.9723 37.4995C22.9276 37.1307 21.576 36.1599 21.4448 35.8642C21.2258 35.3699 21.1736 34.8203 21.1289 34.2827C20.6595 28.7242 20.734 16.5766 20.734 16.5766L19.0352 15.921C19.0352 15.921 18.9622 27.4682 19.5523 33.527C19.6179 34.2006 19.6894 34.8816 19.5866 35.5491C19.4734 36.2944 18.2276 36.6976 18.0085 37.4189C17.5033 39.0811 18.4764 41.145 18.5331 42.8804C18.7327 49.0393 18.9324 55.1967 19.1306 61.3556C19.1753 62.7579 19.2156 64.2035 18.7268 65.5192C18.238 66.8349 17.0876 68.0058 15.6883 68.076C14.4977 68.1357 13.3681 67.3726 12.7467 66.3526C12.1253 65.3326 11.9495 64.096 11.9808 62.9012C12.0687 59.4679 13.7377 56.2286 13.8658 52.7967C13.915 51.4706 13.7332 50.1474 13.5395 48.8347C13.0865 45.7567 12.5709 42.6892 11.9927 39.6322C11.8347 38.7943 11.419 38.0417 11.2074 37.2158C11.1984 37.18 8.79629 35.1743 8.80672 35.1982L7.69953 27.0456C7.15114 23.0088 7.08856 18.9198 7.51475 14.8682L6.48206 14.7457L6.48355 14.7412Z" fill="#9AB9DC"/>
<path d="M22.7644 18.851C23.3158 18.7405 23.885 18.6957 24.4439 18.6464C25.0042 18.5971 25.5794 18.5359 26.1427 18.5703C26.3975 18.5852 26.3975 18.1879 26.1427 18.173C25.566 18.1387 24.9758 18.2029 24.4006 18.2537C23.8195 18.3044 23.2309 18.3537 22.6586 18.4687C22.4083 18.5195 22.5141 18.9018 22.7644 18.8525V18.851Z" fill="#60280C"/>
<path d="M22.3156 21.3274C23.0055 21.3797 23.6955 21.4334 24.3854 21.4857C24.3213 21.4364 24.2572 21.3886 24.1947 21.3394C24.2736 21.8471 24.1187 22.3519 23.9696 22.8313C23.8251 23.3032 23.6791 23.7751 23.6627 24.2725C23.6344 25.1222 23.9339 25.969 24.4539 26.6351C24.7535 27.0189 25.129 27.3385 25.5582 27.5669C25.7832 27.6864 25.9844 27.3429 25.7578 27.2235C25.0411 26.8426 24.4957 26.184 24.2334 25.4149C24.1023 25.0311 24.0412 24.6294 24.0605 24.2247C24.0829 23.7527 24.2409 23.3017 24.378 22.8537C24.5404 22.3235 24.6626 21.7889 24.5761 21.2333C24.5627 21.1437 24.4644 21.0929 24.3854 21.087C23.6955 21.0347 23.0055 20.9809 22.3156 20.9287C22.0607 20.9093 22.0622 21.3065 22.3156 21.3259V21.3274Z" fill="#60280C"/>
<path d="M24.7081 15.8273C24.7602 15.8407 24.8124 15.8556 24.8645 15.8735C24.8929 15.884 24.9212 15.893 24.9495 15.9049C24.9614 15.9094 24.9718 15.9139 24.9838 15.9184C24.9569 15.9079 24.9823 15.9184 24.9942 15.9228C25.0955 15.9691 25.1939 16.0229 25.2877 16.0841C25.3101 16.0991 25.3325 16.114 25.3548 16.1304C25.3652 16.1379 25.3742 16.1439 25.3846 16.1513C25.395 16.1588 25.4174 16.1767 25.395 16.1588C25.4383 16.1931 25.4785 16.2275 25.5187 16.2648C25.5604 16.3037 25.6007 16.3455 25.6394 16.3873C25.6573 16.4067 25.6752 16.4276 25.6931 16.4485C25.7005 16.4575 25.708 16.4679 25.7154 16.4769C25.7527 16.5232 25.6931 16.447 25.7288 16.4933C25.7914 16.5755 25.9032 16.6277 26 16.565C26.082 16.5127 26.1386 16.3813 26.0716 16.2932C25.7571 15.8765 25.319 15.5719 24.8124 15.4419C24.7125 15.4166 24.5918 15.4748 24.568 15.5808C24.5442 15.6839 24.5993 15.7974 24.7066 15.8258L24.7081 15.8273Z" fill="#60280C"/>
<path d="M27.8626 33.3824C30.1932 31.5365 33.0514 29.165 35.3835 27.3191C37.7365 29.8086 40.1967 32.0368 42.9103 34.0858C45.6225 36.1333 48.7131 37.9075 52.1226 38.239C53.2834 38.3525 54.4755 38.2973 55.5887 38.6348C57.888 39.3307 59.408 41.6411 59.6643 43.9827C59.9206 46.3244 59.11 48.6661 57.967 50.739C57.0521 52.3982 55.8152 54.0246 54.0166 54.6996C52.7619 55.1715 51.3566 55.1252 50.0453 54.837C46.4063 54.038 43.4379 51.5261 40.7913 48.9559C35.8708 44.1814 31.4658 38.8976 27.6719 33.2226L27.8656 33.3824H27.8626Z" fill="#F6821E"/>
<path d="M29.4753 32.5549C30.1861 32.8103 30.8314 33.23 31.3604 33.7691C31.5392 33.9528 31.8209 33.6705 31.6405 33.4883C31.0624 32.8984 30.356 32.4504 29.5796 32.1711C29.4783 32.1353 29.3621 32.2114 29.3352 32.31C29.3054 32.4205 29.3725 32.5191 29.4738 32.5549H29.4753Z" fill="#914A26"/>
<path d="M30.8459 31.9265L32.6207 32.9764C32.8412 33.1063 33.0409 32.7629 32.8203 32.6329C32.2287 32.2835 31.6371 31.9325 31.0455 31.5831C30.825 31.4531 30.6253 31.7966 30.8459 31.9265Z" fill="#914A26"/>
<path d="M31.8191 30.9765C32.4241 31.3708 33.0306 31.7636 33.6356 32.1578C33.8502 32.2982 34.0499 31.9532 33.8353 31.8144C33.2303 31.4201 32.6238 31.0273 32.0188 30.6331C31.8042 30.4927 31.6045 30.8377 31.8176 30.9765H31.8191Z" fill="#914A26"/>
<path d="M33.4414 30.1115C34.1597 30.4759 34.79 30.9837 35.3027 31.6064C35.3712 31.6901 35.5128 31.6766 35.5828 31.6064C35.6648 31.5243 35.6514 31.4078 35.5828 31.3257C35.0508 30.6805 34.3847 30.1474 33.6411 29.7695C33.5458 29.7202 33.4265 29.7441 33.3699 29.8412C33.3178 29.9293 33.3446 30.0652 33.4414 30.113V30.1115Z" fill="#914A26"/>
<path d="M34.1827 29.3203L35.9769 30.7345C36.0618 30.8003 36.1751 30.8167 36.257 30.7345C36.3256 30.6658 36.342 30.5195 36.257 30.4538C35.6595 29.9819 35.0604 29.5099 34.4629 29.0395C34.3794 28.9738 34.2647 28.9574 34.1827 29.0395C34.1142 29.1082 34.0978 29.2546 34.1827 29.3203Z" fill="#914A26"/>
<path d="M28.8157 33.0717C30.1554 35.1207 31.495 37.1697 32.8347 39.2186C34.0715 41.1108 35.286 43.0209 36.5929 44.8653C37.8372 46.623 39.1813 48.3211 40.7386 49.813C42.2377 51.2497 43.9439 52.4773 45.8394 53.333C47.6991 54.1723 49.7362 54.6577 51.7822 54.5516C52.0385 54.5382 52.2948 54.5158 52.5511 54.4844C52.8015 54.4531 52.8045 54.0558 52.5511 54.0872C50.5379 54.3336 48.5083 53.9886 46.6307 53.2419C44.7218 52.4832 42.9813 51.3258 41.4628 49.9489C39.8921 48.5227 38.5346 46.8799 37.2903 45.164C35.9983 43.3808 34.8137 41.523 33.6096 39.6801C32.2878 37.6595 30.966 35.6374 29.6443 33.6168L29.157 32.8731C29.0169 32.6595 28.6742 32.8581 28.8142 33.0747L28.8157 33.0717Z" fill="#914A26"/>
<path d="M37.5275 29.8831C39.0654 31.4303 40.7075 32.876 42.4749 34.1543C44.4553 35.588 46.5982 36.8082 48.8915 37.6639C50.2416 38.1687 51.6409 38.5391 53.067 38.7481C53.3174 38.7855 53.4246 38.4017 53.1728 38.3643C50.6947 37.9999 48.3149 37.1472 46.1079 35.9689C44.0485 34.8697 42.1381 33.5047 40.3663 31.9859C39.4811 31.2272 38.6302 30.4283 37.8077 29.6009C37.6274 29.4187 37.3457 29.7009 37.5275 29.8817V29.8831Z" fill="#914A26"/>
<path d="M2.91045 21.1822C3.57357 21.4017 4.27544 21.4988 4.97284 21.4674C5.22766 21.4555 5.22915 21.0582 4.97284 21.0702C4.30674 21.1001 3.64957 21.009 3.01625 20.7999C2.77335 20.7192 2.66904 21.1031 2.91045 21.1837V21.1822Z" fill="#60280C"/>
<path d="M77.7606 51.1138C78.2866 54.4546 78.8141 57.7954 79.3401 61.1362C79.4892 62.083 79.6382 63.0298 79.7872 63.9767C79.8274 64.229 80.2089 64.1215 80.1702 63.8706C79.6441 60.5298 79.1166 57.189 78.5906 53.8482C78.4416 52.9014 78.2926 51.9546 78.1435 51.0077C78.1033 50.7553 77.7218 50.8629 77.7606 51.1138Z" fill="#107991"/>
<path d="M79.0008 51.3467C78.977 52.9492 78.8324 54.5486 78.5657 56.1287C78.524 56.3796 78.9054 56.4871 78.9487 56.2347C79.2214 54.6188 79.3734 52.985 79.3987 51.3467C79.4032 51.0898 79.0053 51.0898 79.0023 51.3467H79.0008Z" fill="#107991"/>
<path d="M80.7024 63.8454C82.7052 61.6829 84.708 59.5204 86.7108 57.3594C87.2785 56.7456 87.8463 56.1333 88.414 55.5195C88.5884 55.3314 88.3082 55.0506 88.1339 55.2388C86.1311 57.4013 84.1283 59.5637 82.1255 61.7247C81.5578 62.3385 80.99 62.9508 80.4222 63.5646C80.2479 63.7528 80.528 64.0336 80.7024 63.8454Z" fill="#107991"/>
<path d="M60.8233 49.3771C59.8114 51.1035 58.7579 52.9299 58.6148 54.9729C58.509 56.4932 59.0351 58.1838 60.2183 59.1904C60.862 59.7385 61.6667 60.0357 62.5116 60.0491C63.4564 60.064 64.3863 59.7474 65.2029 59.2919C66.9121 58.3391 68.1981 56.771 69.3515 55.2268C70.6852 53.4437 71.9787 51.6306 73.2915 49.8311C73.4599 49.5996 73.6283 49.3696 73.7967 49.1381C73.9472 48.9305 73.603 48.7319 73.4539 48.9365C72.1649 50.7047 70.8759 52.4744 69.5855 54.2427C68.4812 55.7555 67.3368 57.3027 65.8138 58.4228C64.4518 59.4248 62.5221 60.1551 60.935 59.2188C59.658 58.4646 59.0336 56.9024 59.0008 55.4703C58.9501 53.3287 60.1229 51.3618 61.1675 49.5772C61.2971 49.3562 60.9544 49.156 60.8248 49.3756L60.8233 49.3771Z" fill="#107991"/>
<path d="M64.9506 85.585C68.3944 86.6558 72.1302 86.726 75.6172 85.8165C76.6097 85.5582 77.5783 85.2162 78.5171 84.8025C78.751 84.6994 78.5484 84.356 78.3174 84.459C75.0852 85.8837 71.4388 86.3676 67.9458 85.8583C66.9668 85.715 66.0011 85.4954 65.0564 85.2027C64.812 85.1266 64.7077 85.5104 64.9506 85.5865V85.585Z" fill="#8C4B2A"/>
<path d="M67.5871 86.6962C68.0997 88.9065 68.6138 91.1168 69.1264 93.3271C69.3678 94.365 69.5765 95.4164 69.8715 96.4394C70.1293 97.3339 70.5048 98.2374 71.1769 98.902C71.8683 99.586 72.8429 100.01 73.819 99.8026C73.9248 99.7802 73.9829 99.6577 73.9576 99.5576C73.0933 96.1556 72.3318 92.7282 71.6791 89.2799C71.4943 88.3002 71.317 87.319 71.1486 86.3378C71.1054 86.0854 70.7224 86.193 70.7656 86.4439C71.3587 89.9041 72.0576 93.345 72.8623 96.7604C73.0903 97.7312 73.3287 98.6989 73.5746 99.6637C73.6208 99.5815 73.667 99.5009 73.7132 99.4187C72.8891 99.595 72.0606 99.2082 71.4764 98.6392C70.8208 98 70.475 97.1189 70.2306 96.2512C69.9565 95.273 69.7523 94.2739 69.5228 93.2852C69.2784 92.2339 69.034 91.1825 68.7897 90.1311C68.5155 88.9513 68.2413 87.77 67.9671 86.5902C67.909 86.3408 67.526 86.4468 67.5841 86.6962H67.5871Z" fill="#8C4B2A"/>
<path d="M73.3017 98.7871C74.0453 101.864 74.8902 104.915 75.8379 107.933C76.1091 108.796 76.3878 109.655 76.6754 110.512C76.7559 110.754 77.1403 110.649 77.0584 110.406C76.054 107.406 75.1495 104.371 74.3478 101.31C74.1183 100.434 73.8977 99.5577 73.6861 98.6796C73.6265 98.4302 73.2435 98.5362 73.3032 98.7856L73.3017 98.7871Z" fill="#8C4B2A"/>
<path d="M70.8122 98.7213C70.6647 101.209 70.5752 103.699 70.5439 106.191C70.5127 108.671 70.5395 111.151 70.6214 113.629C70.7049 116.12 70.8464 118.608 71.0461 121.091C71.2443 123.563 71.4991 126.03 71.8121 128.49C72.125 130.955 72.4931 133.412 72.9193 135.86C72.9729 136.165 73.0266 136.471 73.0817 136.775C73.1264 137.028 73.5094 136.92 73.4647 136.669C72.5855 131.781 71.9343 126.854 71.5111 121.907C71.0894 116.967 70.8971 112.005 70.9329 107.047C70.9537 104.271 71.0461 101.495 71.2101 98.7213C71.225 98.4659 70.8286 98.4659 70.8137 98.7213H70.8122Z" fill="#8C4B2A"/>
<path d="M86.2034 114.112C87.175 113.564 88.1481 113.018 89.1197 112.469C89.3432 112.344 89.142 112.001 88.92 112.126C87.9484 112.674 86.9753 113.221 86.0037 113.769C85.7802 113.894 85.9814 114.238 86.2034 114.112Z" fill="#8C4B2A"/>
<path d="M87.0617 115.019C87.9424 114.64 88.8231 114.26 89.7038 113.882C89.8036 113.839 89.823 113.696 89.7753 113.611C89.7172 113.507 89.6009 113.497 89.5041 113.539L86.862 114.675C86.7622 114.719 86.7428 114.862 86.7905 114.947C86.8486 115.05 86.9648 115.061 87.0617 115.019Z" fill="#8C4B2A"/>
<path d="M69.5667 119.52H73.0388C73.2936 119.52 73.2951 119.123 73.0388 119.123H69.5667C69.3119 119.123 69.3104 119.52 69.5667 119.52Z" fill="#8C4B2A"/>
<path d="M71.5049 120.63C72.4452 120.391 73.4093 120.286 74.378 120.316C74.6343 120.324 74.6328 119.926 74.378 119.919C73.3751 119.888 72.3722 120 71.3991 120.248C71.1517 120.31 71.2561 120.694 71.5049 120.631V120.63Z" fill="#8C4B2A"/>
<path d="M7.08699 39.6262C8.52947 39.1468 9.97196 38.6689 11.4159 38.1896C11.6573 38.1089 11.5545 37.7251 11.3101 37.8057C9.86764 38.2851 8.42516 38.763 6.98119 39.2424C6.73978 39.3231 6.8426 39.7069 7.08699 39.6262Z" fill="#043E66"/>
<path d="M18.601 38.8558C20.2044 38.5959 21.8079 38.3375 23.4113 38.0777C23.6631 38.0374 23.5558 37.6536 23.3055 37.6939C21.7021 37.9537 20.0986 38.2121 18.4952 38.472C18.2434 38.5123 18.3507 38.8961 18.601 38.8558Z" fill="#043E66"/>
<path d="M14.2567 67.7265C15.8855 68.524 17.8078 68.5553 19.4649 67.8221C19.6988 67.719 19.4962 67.3755 19.2652 67.4786C17.7482 68.1506 15.9466 68.1118 14.4579 67.383C14.2299 67.271 14.0272 67.6145 14.2582 67.7265H14.2567Z" fill="#043E66"/>
<path d="M19.9539 35.7569C20.3995 35.6672 20.8435 35.5776 21.2891 35.488C21.3949 35.4671 21.4545 35.3417 21.4277 35.2431C21.3979 35.1341 21.2891 35.0833 21.1833 35.1042C20.7377 35.1938 20.2937 35.2834 19.8481 35.373C19.7423 35.394 19.6827 35.5194 19.7095 35.618C19.7393 35.727 19.8481 35.7778 19.9539 35.7569Z" fill="#043E66"/>
<path d="M7.64348 35.4209C7.91022 35.3313 8.17696 35.2417 8.4437 35.1521C8.54205 35.1192 8.61656 35.0132 8.58229 34.9072C8.55099 34.8086 8.4437 34.7324 8.3379 34.7683C8.07116 34.8579 7.80442 34.9475 7.53768 35.0371C7.43933 35.07 7.36482 35.176 7.39909 35.282C7.43038 35.3806 7.53768 35.4568 7.64348 35.4209Z" fill="#043E66"/>
<path d="M33.1299 89.4605C33.5114 91.3064 33.7081 93.1866 33.7125 95.0728C33.717 96.6737 33.5814 98.4434 34.6767 99.7547C35.1744 100.351 35.8956 100.77 36.6854 100.752C36.7987 100.749 36.8747 100.663 36.8836 100.554C37.1086 97.7878 37.3321 95.0235 37.5572 92.2577C37.6212 91.4676 37.6853 90.6776 37.7494 89.8876C37.7703 89.6322 37.3724 89.6337 37.353 89.8876C37.128 92.6534 36.9045 95.4178 36.6795 98.1836C36.6154 98.9736 36.5513 99.7636 36.4872 100.554C36.5528 100.488 36.6198 100.421 36.6854 100.355C36.0193 100.37 35.4337 100.021 35.0045 99.5292C34.5127 98.9676 34.2758 98.2493 34.1775 97.519C34.0657 96.6887 34.1149 95.8449 34.1104 95.0101C34.1059 94.1245 34.0597 93.2389 33.9718 92.3562C33.872 91.3497 33.7185 90.3476 33.5128 89.3574C33.4607 89.1065 33.0777 89.2126 33.1299 89.4635V89.4605Z" fill="#095B89"/>
<path d="M32.207 101.509C34.7164 100.81 37.3153 100.48 39.9186 100.531C40.1749 100.536 40.1749 100.138 39.9186 100.134C37.2825 100.083 34.6419 100.419 32.1012 101.127C31.8553 101.196 31.9596 101.58 32.207 101.511V101.509Z" fill="#095B89"/>
<path d="M49.6794 90.4853C50.9192 92.1848 52.3259 93.7559 53.8831 95.1687C54.0724 95.3404 54.354 95.0597 54.1633 94.8879C52.6314 93.499 51.2396 91.9578 50.0206 90.2852C49.8716 90.0806 49.5274 90.2792 49.6779 90.4853H49.6794Z" fill="#095B89"/>
<path d="M53.4324 89.3706C53.7707 93.2371 54.109 97.129 53.8065 101.01C53.6545 102.959 53.2581 104.844 52.8647 106.754C52.6769 107.664 52.513 108.582 52.44 109.509C52.364 110.471 52.3953 111.439 52.4728 112.399C52.6307 114.338 52.966 116.258 53.0375 118.204C53.1106 120.204 52.9749 122.204 52.7455 124.19C52.2865 128.171 51.5787 132.13 50.9632 136.091C50.3493 140.046 49.7368 144 49.1229 147.955C49.0469 148.449 48.9694 148.943 48.8934 149.438C48.8546 149.689 49.2376 149.796 49.2763 149.544C49.8933 145.57 50.5102 141.594 51.1256 137.62C51.7411 133.657 52.4102 129.696 52.9496 125.721C53.2134 123.779 53.4175 121.826 53.4503 119.866C53.4831 117.88 53.2596 115.93 53.0301 113.961C52.8036 112.018 52.6888 110.092 53.0062 108.152C53.3147 106.264 53.8169 104.417 54.0523 102.516C54.5337 98.6343 54.2833 94.7096 53.9555 90.8267C53.9152 90.3428 53.872 89.8575 53.8303 89.3736C53.808 89.1197 53.4116 89.1182 53.4339 89.3736L53.4324 89.3706Z" fill="#095B89"/>
<path d="M43.0924 148.302C45.3753 149.773 48.1321 150.482 50.8397 150.322C51.6087 150.277 52.3716 150.162 53.1197 149.979C53.3686 149.917 53.2628 149.534 53.0139 149.595C50.4493 150.222 47.7074 149.995 45.2665 148.993C44.5781 148.711 43.9179 148.36 43.292 147.958C43.076 147.819 42.8778 148.164 43.0924 148.302Z" fill="#095B89"/>
<path d="M34.0709 100.84C32.0592 102.857 31.1889 105.682 31.0056 108.47C30.7895 111.765 31.5674 115.01 32.1977 118.219C32.5345 119.935 32.8251 121.657 32.9354 123.405C33.0397 125.053 33.0173 126.707 32.9354 128.355C32.77 131.699 32.3602 135.028 32.2335 138.373C32.1098 141.617 32.2663 144.914 33.2274 148.036C33.3452 148.418 33.4763 148.797 33.6164 149.172C33.7058 149.41 34.0888 149.307 33.9994 149.066C32.8624 146.034 32.5509 142.798 32.5986 139.58C32.6463 136.279 33.0367 132.998 33.2543 129.708C33.363 128.072 33.4301 126.429 33.3914 124.787C33.3526 123.122 33.1798 121.472 32.8996 119.831C32.3304 116.509 31.3945 113.212 31.3647 109.82C31.3409 107.05 31.9116 104.104 33.667 101.887C33.8801 101.618 34.1096 101.365 34.351 101.121C34.5313 100.94 34.2512 100.658 34.0709 100.84Z" fill="#095B89"/>
<path d="M25.7332 149.086C28.4394 150.71 31.7505 151.223 34.8307 150.572C35.6995 150.388 36.5429 150.107 37.3506 149.74C37.583 149.634 37.3819 149.292 37.1509 149.396C34.3836 150.654 31.153 150.775 28.2769 149.82C27.4588 149.549 26.675 149.187 25.9359 148.744C25.7168 148.612 25.5156 148.956 25.7362 149.087L25.7332 149.086Z" fill="#095B89"/>
<path d="M25.5256 86.0686C24.9444 88.1504 23.4572 89.9261 21.5498 90.9207C21.0089 91.203 20.4367 91.415 19.8451 91.5584C19.5962 91.6181 19.702 92.002 19.9509 91.9422C22.1429 91.4106 24.0622 89.9156 25.1709 87.9533C25.4868 87.3932 25.7372 86.7944 25.9101 86.1746C25.9786 85.9282 25.5956 85.8222 25.5271 86.0686H25.5256Z" fill="#095B89"/>
<path d="M78.2227 41.3591C77.5834 50.1614 76.4077 60.3899 78.7726 68.8919C79.5862 68.6814 80.4282 68.5798 81.2701 68.5903C80.1197 60.1255 80.0318 51.5159 81.0108 43.0303C81.0391 42.7794 81.066 42.5076 80.9363 42.291C80.8275 42.1088 80.6308 42.0013 80.4386 41.9117C79.7233 41.5787 78.9469 41.3726 78.1601 41.3083L78.2227 41.3606V41.3591Z" fill="#043E66"/>
<path d="M79.2977 68.4692C81.6477 67.9301 83.9977 67.3909 86.3477 66.8518C87.4548 69.2264 90.9001 72.0698 93.3425 73.0107C94.0444 73.281 96.3899 73.7709 96.986 74.2278C97.9814 74.991 100.251 87.9584 103.818 93.0779C104.487 94.0382 105.224 95.1508 104.945 96.2887C104.732 97.1579 103.978 97.7732 103.255 98.2989C98.8323 101.516 93.8343 103.937 88.571 105.408C87.6709 105.659 86.7098 105.883 85.8157 105.615C84.1228 105.11 83.4001 103.153 82.9262 101.446C79.998 90.902 77.4394 80.2553 75.2578 69.531C76.4395 69.0173 77.7151 68.7171 79.0011 68.6544L79.2992 68.4707L79.2977 68.4692Z" fill="#043E66"/>
<path d="M76.5036 69.7837C77.3068 72.1463 78.1994 74.479 79.1293 76.7953C80.0606 79.1131 81.0278 81.4175 81.983 83.7263C82.9367 86.0321 83.877 88.3425 84.7547 90.6797C85.6294 93.0094 86.4401 95.3661 87.1315 97.757C87.4757 98.9503 87.8423 100.161 88.0569 101.385C88.2447 102.458 88.1791 103.714 87.2746 104.461C87.0883 104.615 86.8722 104.722 86.6382 104.787C86.3924 104.854 86.4967 105.238 86.7441 105.17C87.7484 104.899 88.3683 103.911 88.5054 102.923C88.6813 101.649 88.2476 100.341 87.9228 99.1235C87.2701 96.6758 86.4848 94.2654 85.6205 91.8849C84.7517 89.4894 83.8054 87.1223 82.8383 84.7657C81.8727 82.4151 80.8847 80.0734 79.928 77.7182C78.9684 75.3556 78.0385 72.9796 77.195 70.5722C77.0907 70.275 76.9879 69.9778 76.8866 69.6806C76.8046 69.4402 76.4217 69.5432 76.5036 69.7866V69.7837Z" fill="#095B89"/>
<path d="M79.1015 69.4383C79.8347 69.1815 80.5768 68.9455 81.3234 68.7319C81.5693 68.6618 81.465 68.2779 81.2176 68.3481C80.4695 68.5617 79.7289 68.7977 78.9957 69.0545C78.7558 69.1382 78.8586 69.5235 79.1015 69.4383Z" fill="#095B89"/>
<path d="M96.9972 89.6503L93.3791 88.3361L90.8279 91.2229L90.287 86.6231L86.9922 84.1082L90.275 82.5789L90.7906 78.1375L93.3597 81.7934L96.9733 81.5634L95.2775 85.3507L96.9972 89.6503Z" fill="#9AB9DC"/>
<path d="M89.1984 104.31C92.8255 102.887 96.3482 101.204 99.7294 99.2668C100.673 98.7261 101.606 98.1661 102.526 97.5866C102.743 97.4507 102.543 97.1058 102.327 97.2432C99.0589 99.2966 95.6449 101.113 92.1147 102.669C91.1163 103.109 90.1089 103.528 89.0941 103.926C88.8586 104.019 88.9615 104.404 89.1999 104.31H89.1984Z" fill="#095B89"/>
</svg>
